<svg xmlns:ev="http://www.w3.org/2001/xml-events" xmlns:xlink="http://www.w3.org/1999/xlink" xmlns="http://www.w3.org/2000/svg" width="1132" height="804" viewBox="0 0 1132 804"><defs/><g transform="translate(5.5,5.5)" id="page1"><rect y="0" fill="#ffffff" x="0" width="1123" height="794"/><g transform="translate(128.50,333.20)" id="group1"><path d="M2.6,7.8C2.6,8.5,2.1,9.1,1.3,9.1C.5,9.1,.0,8.5,.0,7.8L.0,1.3C.0,.6,.5,.0,1.3,.0C2.1,.0,2.6,.6,2.6,1.3L2.6,7.8z" transform="translate(7.72,25.13)" fill="#00188f" id="shape2" fill-rule="nonzero"/><path d="M2.6,7.8C2.6,8.5,2.1,9.1,1.3,9.1C.5,9.1,.0,8.5,.0,7.8L.0,1.3C.0,.6,.5,.0,1.3,.0C2.1,.0,2.6,.6,2.6,1.3L2.6,7.8z" transform="translate(25.66,25.13)" fill="#00188f" id="shape3" fill-rule="nonzero"/><path d="M.0,.0L.0,9.6C.0,10.8,.8,11.6,1.8,11.6L2.6,11.6L2.6,14.9C2.6,15.6,3.1,16.2,3.8,16.2C4.5,16.2,5.0,15.6,5.0,14.9L5.0,11.6L7.6,11.6L7.6,14.9C7.6,15.6,8.1,16.2,8.8,16.2C9.4,16.2,9.9,15.6,9.9,14.9L9.9,11.6L11.1,11.6C12.2,11.6,12.6,10.7,12.6,9.6L12.6,.0L.0,.0z" transform="translate(11.59,25.14)" fill="#00188f" id="shape4" fill-rule="nonzero"/><path d="M10.7,2.4L11.8,.6C11.9,.4,11.8,.2,11.7,.0C11.5,.0,11.3,.0,11.3,.2L10.2,2.1C9.3,1.6,8.1,1.3,6.9,1.3C5.8,1.3,4.6,1.6,3.7,2.1L2.6,.2C2.5,.0,2.4,.0,2.2,.0C2.1,.2,2.0,.3,2.1,.6L3.1,2.4C1.3,3.5,.0,5.3,.0,7.5C.0,7.6,.0,7.8,.0,7.8L13.9,7.8C13.9,7.8,13.9,7.6,13.9,7.5C13.9,5.3,12.7,3.4,10.7,2.4zM3.7,5.2C3.3,5.2,3.0,4.9,3.0,4.6C3.0,4.2,3.3,3.9,3.7,3.9C4.1,3.9,4.3,4.2,4.3,4.6C4.3,4.9,4.1,5.2,3.7,5.2zM10.1,5.2C9.7,5.2,9.4,4.9,9.4,4.6C9.4,4.2,9.7,3.9,10.1,3.9C10.5,3.9,10.7,4.2,10.7,4.6C10.7,4.9,10.5,5.2,10.1,5.2z" transform="translate(11.13,16.02)" fill="#00188f" id="shape5" fill-rule="nonzero"/><path d="M34.3,.0L1.7,.0C.8,.0,.0,.6,.0,1.5L.0,56.2C.0,57.1,.8,58.0,1.7,58.0L34.3,58.0C35.2,58.0,36.0,57.1,36.0,56.2L36.0,1.7C35.9,.8,35.1,.0,34.3,.0zM14.4,2.3L22.1,2.3L22.1,3.6L14.4,3.6L14.4,2.3zM18.1,56.8C16.6,56.8,15.4,55.7,15.4,54.3C15.4,52.9,16.6,51.7,18.1,51.7C19.5,51.7,20.7,52.9,20.7,54.3C20.7,55.7,19.5,56.8,18.1,56.8zM32.1,50.5L3.8,50.5L3.8,50.4L3.8,6.4L32.1,6.4L32.1,50.5z" fill="#00188f" id="shape6" fill-rule="nonzero"/></g><g transform="translate(124.15,531.80)" id="group7"><g transform="translate(7.28,22.38)" id="group8"><path d="M.0,12.9C.0,5.8,5.8,.0,12.9,.0C20.0,.0,25.7,5.8,25.7,12.9C25.7,20.0,20.0,25.7,12.9,25.7C5.8,25.7,.0,20.0,.0,12.9z" fill="#94979c" id="shape9" fill-rule="nonzero"/><path d="M8.0,4.6C8.0,4.6,7.7,3.1,8.9,1.7C10.0,.3,11.2,.1,12.0,.0C12.0,.0,12.2,1.8,10.9,3.2C9.7,4.6,8.6,4.6,8.0,4.6zM15.6,6.7C15.6,6.7,13.4,7.7,13.4,10.6C13.4,13.4,16.1,14.5,16.1,14.5C16.1,14.5,15.4,16.6,13.9,18.4C12.3,20.2,11.1,19.6,10.4,19.4C9.8,19.2,9.2,18.9,8.4,18.9C7.5,18.9,6.4,19.4,5.8,19.6C5.2,19.7,4.4,19.9,3.4,18.9C2.4,17.8,1.1,16.2,.4,13.6C-0.3,11.0,-0.6,6.4,3.7,5.0C3.7,5.0,4.9,4.6,5.9,5.0C7.0,5.3,7.8,5.7,8.2,5.7C8.5,5.7,10.5,4.7,11.6,4.7C12.6,4.7,14.4,5.0,15.6,6.7z" transform="translate(4.83,3.02)" fill="#ffffff" id="shape10" fill-rule="nonzero"/></g><g id="group11"><path d="M34.8,70.5L5.4,70.5C3.9,70.5,2.6,70.0,1.5,69.0C.5,68.0,.0,66.6,.0,65.2L.0,5.3C.0,3.9,.5,2.5,1.5,1.5C2.6,.5,3.9,.0,5.4,.0L35.0,.0C36.4,.0,37.8,.6,38.8,1.6C39.8,2.5,40.3,3.9,40.3,5.3L40.3,65.2C40.3,68.1,37.9,70.5,34.8,70.5zM5.4,3.1C4.8,3.1,4.2,3.3,3.8,3.7C3.4,4.1,3.2,4.7,3.2,5.3L3.2,65.2C3.2,65.8,3.4,66.3,3.8,66.8C4.2,67.2,4.8,67.4,5.4,67.4L35.0,67.4C36.2,67.4,37.1,66.5,37.1,65.4L37.1,5.3C37.1,4.7,36.9,4.2,36.5,3.8C36.1,3.4,35.6,3.1,35.0,3.1L5.4,3.1zM13.3,5.6L26.9,5.6L26.9,8.5L13.3,8.5L13.3,5.6zM23.6,61.7C23.6,63.6,22.0,65.1,20.1,65.1C18.1,65.1,16.6,63.6,16.6,61.7C16.6,59.8,18.1,58.2,20.1,58.2C22.0,58.2,23.6,59.8,23.6,61.7z" fill="#4c4c4c" id="shape13" fill-rule="nonzero"/></g></g><g transform="translate(491.44,680.19)" id="group14"><path d="M44.3,49.1C39.7,52.6,34.3,54.3,29.0,54.3C21.3,54.3,14.0,50.9,8.9,44.3C.5,33.3,2.6,17.5,13.6,9.0C18.2,5.5,23.6,3.8,29.0,3.8C36.6,3.8,44.0,7.2,49.0,13.8C57.5,24.8,55.3,40.7,44.3,49.1zM52.0,11.3C46.3,3.8,37.6,.0,29.0,.0C22.9,.0,16.6,2.0,11.4,6.0C-1.3,15.8,-3.8,33.9,6.0,46.7C11.7,54.2,20.3,58.0,29.0,58.0C35.1,58.0,41.4,56.0,46.6,52.0C59.3,42.4,61.8,24.1,52.0,11.3z" fill="#0078d7" id="shape15" fill-rule="nonzero"/><path d="M7.7,4.7C6.0,3.1,4.6,1.5,3.5,.0C1.1,4.9,.3,10.0,.0,14.1C.3,14.4,.3,14.7,.5,15.0C1.7,16.6,3.2,18.1,4.6,19.2C4.6,15.8,4.9,10.3,7.7,4.7z" transform="translate(6.27,31.30)" fill="#0078d7" id="shape16" fill-rule="nonzero"/><path d="M10.4,.0C8.1,1.5,5.9,3.5,3.4,6.1C2.1,7.5,.9,8.9,.0,10.3C1.1,12.0,2.3,13.7,4.0,15.4C5.2,13.7,6.7,11.8,8.6,10.1C10.9,8.0,13.0,6.2,15.2,4.8C13.7,3.2,12.0,1.5,10.4,.0z" transform="translate(12.42,16.55)" fill="#0078d7" id="shape17" fill-rule="nonzero"/><path d="M20.6,4.0C19.5,2.6,18.4,1.4,17.0,.3C13.2,-0.3,6.9,-0.2,.0,3.5C1.5,5.1,3.2,6.9,4.7,8.2C13.9,3.2,20.6,4.0,20.6,4.0z" transform="translate(26.33,11.10)" fill="#0078d7" id="shape18" fill-rule="nonzero"/><path d="M4.1,18.3C4.8,16.9,5.6,15.5,6.5,14.0C2.5,7.7,2.7,2.4,3.1,.0C2.2,1.1,1.1,2.2,.4,3.2C-0.4,6.8,-0.4,12.0,4.1,18.3z" transform="translate(5.84,12.82)" fill="#0078d7" id="shape19" fill-rule="nonzero"/><path d="M7.2,4.3C5.3,2.8,3.8,1.4,2.4,.0C1.5,1.4,.8,2.6,.0,4.0C1.2,5.2,2.8,6.6,4.4,7.8C14.7,15.9,25.0,16.7,30.8,16.7C31.1,16.7,33.0,14.3,34.0,12.7C31.4,13.4,20.3,14.7,7.2,4.3z" transform="translate(14.05,32.07)" fill="#0078d7" id="shape20" fill-rule="nonzero"/><path d="M.0,4.3C1.1,5.8,2.4,7.5,4.1,9.0C4.8,7.7,5.5,6.4,6.6,5.1C4.9,3.4,3.7,1.7,2.6,.0C1.6,1.5,.8,2.9,.0,4.3z" transform="translate(9.88,26.82)" fill="#0078d7" id="shape21" fill-rule="nonzero"/><path d="M.0,2.2C9.5,10.9,20.5,18.3,23.4,20.3C23.7,19.5,23.9,18.9,24.1,18.1C21.0,15.8,13.0,9.7,3.4,.0C2.4,.6,1.2,1.0,.0,2.2z" transform="translate(27.57,19.20)" fill="#0078d7" id="shape22" fill-rule="nonzero"/><path d="M10.6,8.0C8.3,5.5,5.9,2.8,3.4,.0C2.3,.3,1.1,.8,.0,1.4C1.7,4.3,4.3,7.3,6.9,10.1C8.3,9.3,9.4,8.6,10.6,8.0z" transform="translate(15.89,6.54)" fill="#0078d7" id="shape23" fill-rule="nonzero"/><path d="M3.7,.0C2.5,.6,1.1,1.2,.0,2.1C1.5,3.7,3.1,5.3,4.8,6.8C6.0,6.1,7.1,5.5,8.3,4.8C6.8,3.3,5.4,1.7,3.7,.0z" transform="translate(22.77,14.49)" fill="#0078d7" id="shape24" fill-rule="nonzero"/><path d="M2.1,1.1C-0.2,3.0,-0.7,6.3,1.0,8.6C2.9,11.1,6.2,11.4,8.7,9.7C11.0,7.9,11.4,4.5,9.7,2.0C7.9,-0.3,4.6,-0.7,2.1,1.1z" transform="translate(36.79,26.32)" fill="#0078d7" id="shape25" fill-rule="nonzero"/><path d="M1.9,1.1C-0.2,2.7,-0.7,6.0,1.0,8.1C2.7,10.3,5.9,10.8,8.1,9.1C10.2,7.4,10.7,4.3,9.0,2.0C7.3,-0.3,4.2,-0.6,1.9,1.1z" transform="translate(25.75,39.98)" fill="#0078d7" id="shape26" fill-rule="nonzero"/><path d="M3.0,1.6C-0.4,4.2,-1.0,9.0,1.6,12.4C4.2,15.8,9.0,16.4,12.3,13.8C15.7,11.2,16.3,6.4,13.7,3.0C11.1,-0.4,6.2,-1.0,3.0,1.6z" transform="translate(5.95,23.45)" fill="#0078d7" id="shape27" fill-rule="nonzero"/><text style="fill:#191919;font-family:Arial, Microsoft Yahei;font-size:9.00pt" xml:space="preserve"><tspan y="74.0" x="1.0">wallet-user</tspan></text></g><g transform="translate(491.25,376.37)" id="group28"><path d="M44.3,49.1C39.7,52.6,34.3,54.3,29.0,54.3C21.3,54.3,14.0,50.9,8.9,44.3C.5,33.3,2.6,17.5,13.6,9.0C18.2,5.5,23.6,3.8,29.0,3.8C36.6,3.8,44.0,7.2,49.0,13.8C57.5,24.8,55.3,40.7,44.3,49.1zM52.0,11.3C46.3,3.8,37.6,.0,29.0,.0C22.9,.0,16.6,2.0,11.4,6.0C-1.3,15.8,-3.8,33.9,6.0,46.7C11.7,54.2,20.3,58.0,29.0,58.0C35.1,58.0,41.4,56.0,46.6,52.0C59.3,42.4,61.8,24.1,52.0,11.3z" fill="#0078d7" id="shape29" fill-rule="nonzero"/><path d="M7.7,4.7C6.0,3.1,4.6,1.5,3.5,.0C1.1,4.9,.3,10.0,.0,14.1C.3,14.4,.3,14.7,.5,15.0C1.7,16.6,3.2,18.1,4.6,19.2C4.6,15.8,4.9,10.3,7.7,4.7z" transform="translate(6.27,31.30)" fill="#0078d7" id="shape30" fill-rule="nonzero"/><path d="M10.4,.0C8.1,1.5,5.9,3.5,3.4,6.1C2.1,7.5,.9,8.9,.0,10.3C1.1,12.0,2.3,13.7,4.0,15.4C5.2,13.7,6.7,11.8,8.6,10.1C10.9,8.0,13.0,6.2,15.2,4.8C13.7,3.2,12.0,1.5,10.4,.0z" transform="translate(12.42,16.55)" fill="#0078d7" id="shape31" fill-rule="nonzero"/><path d="M20.6,4.0C19.5,2.6,18.4,1.4,17.0,.3C13.2,-0.3,6.9,-0.2,.0,3.5C1.5,5.1,3.2,6.9,4.7,8.2C13.9,3.2,20.6,4.0,20.6,4.0z" transform="translate(26.33,11.10)" fill="#0078d7" id="shape32" fill-rule="nonzero"/><path d="M4.1,18.3C4.8,16.9,5.6,15.5,6.5,14.0C2.5,7.7,2.7,2.4,3.1,.0C2.2,1.1,1.1,2.2,.4,3.2C-0.4,6.8,-0.4,12.0,4.1,18.3z" transform="translate(5.84,12.82)" fill="#0078d7" id="shape33" fill-rule="nonzero"/><path d="M7.2,4.3C5.3,2.8,3.8,1.4,2.4,.0C1.5,1.4,.8,2.6,.0,4.0C1.2,5.2,2.8,6.6,4.4,7.8C14.7,15.9,25.0,16.7,30.8,16.7C31.1,16.7,33.0,14.3,34.0,12.7C31.4,13.4,20.3,14.7,7.2,4.3z" transform="translate(14.05,32.07)" fill="#0078d7" id="shape34" fill-rule="nonzero"/><path d="M.0,4.3C1.1,5.8,2.4,7.5,4.1,9.0C4.8,7.7,5.5,6.4,6.6,5.1C4.9,3.4,3.7,1.7,2.6,.0C1.6,1.5,.8,2.9,.0,4.3z" transform="translate(9.88,26.82)" fill="#0078d7" id="shape35" fill-rule="nonzero"/><path d="M.0,2.2C9.5,10.9,20.5,18.3,23.4,20.3C23.7,19.5,23.9,18.9,24.1,18.1C21.0,15.8,13.0,9.7,3.4,.0C2.4,.6,1.2,1.0,.0,2.2z" transform="translate(27.57,19.20)" fill="#0078d7" id="shape36" fill-rule="nonzero"/><path d="M10.6,8.0C8.3,5.5,5.9,2.8,3.4,.0C2.3,.3,1.1,.8,.0,1.4C1.7,4.3,4.3,7.3,6.9,10.1C8.3,9.3,9.4,8.6,10.6,8.0z" transform="translate(15.89,6.54)" fill="#0078d7" id="shape37" fill-rule="nonzero"/><path d="M3.7,.0C2.5,.6,1.1,1.2,.0,2.1C1.5,3.7,3.1,5.3,4.8,6.8C6.0,6.1,7.1,5.5,8.3,4.8C6.8,3.3,5.4,1.7,3.7,.0z" transform="translate(22.77,14.49)" fill="#0078d7" id="shape38" fill-rule="nonzero"/><path d="M2.1,1.1C-0.2,3.0,-0.7,6.3,1.0,8.6C2.9,11.1,6.2,11.4,8.7,9.7C11.0,7.9,11.4,4.5,9.7,2.0C7.9,-0.3,4.6,-0.7,2.1,1.1z" transform="translate(36.79,26.32)" fill="#0078d7" id="shape39" fill-rule="nonzero"/><path d="M1.9,1.1C-0.2,2.7,-0.7,6.0,1.0,8.1C2.7,10.3,5.9,10.8,8.1,9.1C10.2,7.4,10.7,4.3,9.0,2.0C7.3,-0.3,4.2,-0.6,1.9,1.1z" transform="translate(25.75,39.98)" fill="#0078d7" id="shape40" fill-rule="nonzero"/><path d="M3.0,1.6C-0.4,4.2,-1.0,9.0,1.6,12.4C4.2,15.8,9.0,16.4,12.3,13.8C15.7,11.2,16.3,6.4,13.7,3.0C11.1,-0.4,6.2,-1.0,3.0,1.6z" transform="translate(5.95,23.45)" fill="#0078d7" id="shape41" fill-rule="nonzero"/><text style="fill:#191919;font-family:Arial, Microsoft Yahei;font-size:9.00pt" xml:space="preserve"><tspan y="74.0" x="-2.3">bill-payment</tspan></text></g><g transform="translate(494.92,262.19)" id="group42"><path d="M41.1,45.6C36.9,48.9,31.9,50.4,26.9,50.4C19.8,50.4,13.0,47.3,8.3,41.2C.5,30.9,2.4,16.2,12.7,8.4C16.9,5.1,21.9,3.5,26.9,3.5C34.0,3.5,40.8,6.7,45.5,12.8C53.4,23.1,51.4,37.8,41.1,45.6zM48.3,10.5C43.0,3.6,34.9,.0,26.9,.0C21.3,.0,15.4,1.9,10.6,5.6C-1.2,14.7,-3.5,31.5,5.6,43.3C10.9,50.3,18.8,53.9,26.9,53.9C32.6,53.9,38.5,52.0,43.3,48.3C55.1,39.3,57.4,22.4,48.3,10.5z" fill="#0078d7" id="shape43" fill-rule="nonzero"/><path d="M7.1,4.4C5.6,2.8,4.3,1.4,3.3,.0C1.0,4.6,.3,9.3,.0,13.1C.3,13.4,.3,13.7,.4,14.0C1.6,15.4,3.0,16.8,4.3,17.8C4.3,14.7,4.6,9.5,7.1,4.4z" transform="translate(5.83,29.07)" fill="#0078d7" id="shape44" fill-rule="nonzero"/><path d="M9.7,.0C7.6,1.4,5.4,3.3,3.1,5.7C2.0,7.0,.9,8.3,.0,9.6C1.0,11.1,2.1,12.7,3.7,14.3C4.8,12.7,6.3,11.0,8.0,9.4C10.1,7.4,12.1,5.7,14.1,4.4C12.7,3.0,11.1,1.4,9.7,.0z" transform="translate(11.54,15.37)" fill="#0078d7" id="shape45" fill-rule="nonzero"/><path d="M19.1,3.7C18.1,2.4,17.1,1.3,15.8,.3C12.3,-0.3,6.4,-0.2,.0,3.2C1.4,4.8,3.0,6.4,4.4,7.6C12.9,2.9,19.1,3.7,19.1,3.7z" transform="translate(24.45,10.31)" fill="#0078d7" id="shape46" fill-rule="nonzero"/><path d="M3.8,17.0C4.5,15.7,5.2,14.4,6.0,13.0C2.4,7.1,2.5,2.3,2.9,.0C2.1,1.0,1.0,2.0,.3,3.0C-0.3,6.3,-0.3,11.1,3.8,17.0z" transform="translate(5.42,11.90)" fill="#0078d7" id="shape47" fill-rule="nonzero"/><path d="M6.7,4.0C4.9,2.6,3.5,1.3,2.3,.0C1.4,1.3,.7,2.4,.0,3.7C1.1,4.8,2.6,6.1,4.1,7.3C13.7,14.8,23.2,15.5,28.6,15.5C28.9,15.5,30.6,13.2,31.6,11.8C29.1,12.4,18.9,13.7,6.7,4.0z" transform="translate(13.05,29.78)" fill="#0078d7" id="shape48" fill-rule="nonzero"/><path d="M.0,4.0C1.0,5.4,2.3,7.0,3.9,8.4C4.4,7.1,5.1,6.0,6.1,4.7C4.6,3.1,3.4,1.6,2.4,.0C1.4,1.4,.7,2.7,.0,4.0z" transform="translate(9.17,24.90)" fill="#0078d7" id="shape49" fill-rule="nonzero"/><path d="M.0,2.0C8.8,10.1,19.1,17.0,21.8,18.8C22.1,18.1,22.2,17.5,22.4,16.8C19.5,14.7,12.1,9.0,3.1,.0C2.3,.6,1.1,1.0,.0,2.0z" transform="translate(25.60,17.83)" fill="#0078d7" id="shape50" fill-rule="nonzero"/><path d="M9.8,7.4C7.7,5.1,5.4,2.6,3.1,.0C2.2,.3,1.0,.7,.0,1.3C1.6,4.0,4.0,6.8,6.4,9.4C7.7,8.6,8.7,8.0,9.8,7.4z" transform="translate(14.76,6.08)" fill="#0078d7" id="shape51" fill-rule="nonzero"/><path d="M3.4,.0C2.3,.6,1.0,1.1,.0,2.0C1.4,3.4,2.9,4.9,4.5,6.3C5.6,5.6,6.6,5.1,7.7,4.5C6.3,3.1,5.0,1.6,3.4,.0z" transform="translate(21.15,13.46)" fill="#0078d7" id="shape52" fill-rule="nonzero"/><path d="M1.9,1.1C-0.2,2.8,-0.6,5.9,1.0,8.0C2.7,10.3,5.8,10.6,8.1,9.0C10.2,7.3,10.6,4.2,9.0,1.9C7.3,-0.2,4.2,-0.6,1.9,1.1z" transform="translate(34.17,24.44)" fill="#0078d7" id="shape53" fill-rule="nonzero"/><path d="M1.8,1.0C-0.2,2.6,-0.6,5.6,1.0,7.6C2.5,9.6,5.5,10.0,7.5,8.4C9.5,6.9,10.0,4.0,8.4,1.8C6.8,-0.3,3.9,-0.6,1.8,1.0z" transform="translate(23.91,37.13)" fill="#0078d7" id="shape54" fill-rule="nonzero"/><path d="M2.8,1.5C-0.4,3.9,-0.9,8.4,1.5,11.5C3.9,14.6,8.3,15.2,11.5,12.8C14.6,10.4,15.2,5.9,12.8,2.8C10.3,-0.4,5.8,-0.9,2.8,1.5z" transform="translate(5.52,21.78)" fill="#0078d7" id="shape55" fill-rule="nonzero"/><text style="fill:#191919;font-family:Arial, Microsoft Yahei;font-size:9.00pt" xml:space="preserve"><tspan y="69.9" x="-10.0">wallet-timeline</tspan></text></g><path d="M78.0,34.3C78.0,37.5,75.2,40.2,72.1,40.2C68.9,40.2,66.1,37.5,66.1,34.3C66.1,31.7,67.6,29.6,69.7,28.7L69.7,23.0L39.0,5.1L8.3,23.0L8.3,35.8L3.8,35.8L3.8,20.4L39.0,.0L74.4,20.4L74.4,28.7C76.5,29.6,78.0,31.7,78.0,34.3zM69.7,58.7L39.0,76.6L8.3,58.7L8.3,53.0C10.4,52.1,11.9,50.0,11.9,47.5C11.9,44.3,9.1,41.5,5.9,41.5C2.8,41.5,.0,44.3,.0,47.5C.0,50.0,1.5,52.1,3.6,53.0L3.6,61.3L38.6,81.5L39.0,81.7L74.2,61.3L74.2,46.0L69.7,46.0L69.7,58.7zM24.2,21.7C21.8,21.3,19.9,23.0,19.9,25.3L19.9,48.5C19.9,54.9,25.2,60.2,31.6,60.2L46.2,60.2C53.2,60.2,58.9,54.1,58.1,46.8C57.2,40.6,51.7,36.4,45.8,36.4L40.5,36.4C39.8,36.4,39.4,36.0,39.4,35.3L39.4,25.7C39.4,24.0,38.2,22.3,36.5,21.9C34.1,21.5,32.2,23.2,32.2,25.5L32.2,35.3C32.2,36.0,31.8,36.4,31.2,36.4L28.2,36.4C27.6,36.4,27.1,36.0,27.1,35.3L27.1,25.7C27.1,23.6,25.9,21.9,24.2,21.7zM26.5,48.1C26.5,49.8,27.8,51.1,29.5,51.1C31.2,51.1,32.4,49.8,32.4,48.1C32.4,46.4,31.2,45.1,29.5,45.1C27.8,45.1,26.5,46.4,26.5,48.1zM45.6,48.1C45.6,49.8,46.8,51.1,48.5,51.1C50.2,51.1,51.5,49.8,51.5,48.1C51.5,46.4,50.2,45.1,48.5,45.1C46.8,45.1,45.6,46.4,45.6,48.1zM36.2,48.1C36.2,49.8,37.5,51.1,39.2,51.1C40.9,51.1,42.2,49.8,42.2,48.1C42.2,46.4,40.9,45.1,39.2,45.1C37.5,45.1,36.2,46.4,36.2,48.1z" transform="translate(866.88,451.54)" fill="#00c1de" id="shape56" fill-rule="nonzero"/><g transform="translate(628.12,305.36)" id="group57"><path d="M53.5,53.9L.0,53.9L.0,.0L53.9,.0L53.9,53.9L53.5,53.9z" fill="#f6f6f6" fill-opacity="0.00" id="shape58" fill-rule="nonzero"/><g transform="translate(6.61,3.21)" id="group59"><path d="M.0,.0L3.5,.0L3.5,10.3L.0,10.3L.0,.0z" transform="translate(19.84,23.73)" fill="#0078d7" id="shape60" fill-rule="nonzero"/><path d="M19.2,.0C8.8,.0,.0,4.2,.0,7.7L.0,40.1C.0,44.2,11.0,47.8,21.1,47.8C31.2,47.8,39.7,44.2,39.7,40.4L39.7,7.7C39.7,4.2,29.3,.0,19.2,.0zM19.8,3.2C27.1,3.2,33.1,4.8,33.1,7.1C33.1,9.3,27.1,10.9,19.8,10.9C12.6,10.9,6.6,9.3,6.6,6.7C6.6,4.2,12.6,3.2,19.8,3.2z" fill="#0078d7" id="shape61" fill-rule="nonzero"/></g><path d="M28.0,14.4C26.8,14.4,26.1,15.1,26.1,17.0L26.1,19.9C26.1,21.8,25.8,22.8,24.9,24.0C23.9,24.7,22.4,25.0,20.5,25.0L20.5,22.4C21.1,22.4,21.7,22.1,22.0,21.8C22.4,21.5,22.7,20.8,22.7,20.2L22.7,17.3C22.7,15.4,23.3,13.5,24.6,13.1C23.3,12.5,22.7,11.2,22.7,8.7L22.7,5.1C22.7,3.5,22.0,2.9,20.8,2.9L20.8,.0C21.1,.0,21.4,.0,21.7,.0C23.0,.0,24.3,.6,25.2,1.3C25.8,1.9,26.5,3.2,26.5,5.5L26.5,8.3C26.5,9.9,27.1,10.9,28.3,10.9L28.0,14.4zM7.6,24.7C5.7,24.7,4.1,24.4,3.1,23.7C2.5,23.1,1.9,21.8,1.9,19.6L1.9,16.0C1.9,14.4,1.3,13.5,.0,13.5L.0,11.2C1.3,11.2,1.9,10.3,1.9,8.7L1.9,5.5C1.9,3.5,2.2,2.6,3.1,1.6C4.1,1.0,5.4,.6,7.6,.6L7.6,3.2C6.3,3.2,5.7,3.8,5.7,5.5L5.7,8.3C5.7,10.3,5.0,12.2,3.8,12.8C5.0,13.5,5.7,14.7,5.7,17.3L5.7,20.2C5.7,21.2,6.0,21.8,6.3,22.1C6.6,22.4,7.2,22.8,7.9,22.8L7.6,24.7z" transform="translate(12.28,18.27)" fill="#ffffff" id="shape62" fill-rule="nonzero"/><text style="fill:#191919;font-family:Arial, Microsoft Yahei;font-size:9.00pt" xml:space="preserve"><tspan y="69.9" x="-10.0">wallet-timeline</tspan></text></g><g transform="translate(622.12,680.19)" id="group63"><path d="M57.7,58.0L.0,58.0L.0,.0L58.0,.0L58.0,58.0L57.7,58.0z" fill="#f6f6f6" fill-opacity="0.00" id="shape64" fill-rule="nonzero"/><g transform="translate(7.12,3.45)" id="group65"><path d="M.0,.0L3.7,.0L3.7,11.0L.0,11.0L.0,.0z" transform="translate(21.37,25.55)" fill="#0078d7" id="shape66" fill-rule="nonzero"/><path d="M20.7,.0C9.5,.0,.0,4.5,.0,8.3L.0,43.2C.0,47.6,11.9,51.4,22.7,51.4C33.6,51.4,42.7,47.6,42.7,43.5L42.7,8.3C42.7,4.5,31.5,.0,20.7,.0zM21.4,3.5C29.2,3.5,35.6,5.2,35.6,7.6C35.6,10.0,29.2,11.7,21.4,11.7C13.6,11.7,7.1,10.0,7.1,7.3C7.1,4.5,13.6,3.5,21.4,3.5z" fill="#0078d7" id="shape67" fill-rule="nonzero"/></g><path d="M30.2,15.5C28.8,15.5,28.2,16.2,28.2,18.3L28.2,21.4C28.2,23.5,27.8,24.5,26.8,25.9C25.8,26.6,24.1,26.9,22.0,26.9L22.0,24.2C22.7,24.2,23.4,23.8,23.7,23.5C24.1,23.1,24.4,22.4,24.4,21.8L24.4,18.6C24.4,16.6,25.1,14.5,26.5,14.2C25.1,13.5,24.4,12.1,24.4,9.3L24.4,5.5C24.4,3.8,23.7,3.1,22.4,3.1L22.4,.0C22.7,.0,23.1,.0,23.4,.0C24.8,.0,26.1,.7,27.1,1.4C27.8,2.1,28.5,3.5,28.5,5.9L28.5,9.0C28.5,10.7,29.2,11.7,30.5,11.7L30.2,15.5zM8.1,26.6C6.1,26.6,4.4,26.2,3.4,25.5C2.7,24.9,2.0,23.5,2.0,21.1L2.0,17.3C2.0,15.5,1.4,14.5,.0,14.5L.0,12.1C1.4,12.1,2.0,11.0,2.0,9.3L2.0,5.9C2.0,3.8,2.4,2.8,3.4,1.7C4.4,1.0,5.8,.7,8.1,.7L8.1,3.5C6.8,3.5,6.1,4.1,6.1,5.9L6.1,9.0C6.1,11.0,5.4,13.1,4.1,13.8C5.4,14.5,6.1,15.9,6.1,18.6L6.1,21.8C6.1,22.8,6.4,23.5,6.8,23.8C7.1,24.2,7.8,24.5,8.5,24.5L8.1,26.6z" transform="translate(13.23,19.68)" fill="#ffffff" id="shape68" fill-rule="nonzero"/><text style="fill:#191919;font-family:Arial, Microsoft Yahei;font-size:9.00pt" xml:space="preserve"><tspan y="74.0" x="1.0">wallet-user</tspan></text></g><g transform="translate(549.44,709.19)" id="shape69"><path stroke="#191919" d="M.0,.0L66.7,.0" fill="none"/><path stroke="#191919" d="M66.7,-3.0L72.7,.0L66.7,3.0L66.7,-3.0" fill="#191919" stroke-linecap="round" stroke-width="1"/></g><g transform="translate(629.25,222.16)" id="group70"><g transform="translate(0.00,17.83)" id="group71"><path d="M.0,5.2C.0,5.8,.4,6.3,1.5,6.8L23.4,15.6C25.3,16.4,28.5,16.4,30.5,15.6L52.4,6.8C53.5,6.3,53.9,5.8,53.9,5.2L53.9,.2C53.9,.7,53.4,1.3,52.4,1.7L30.5,10.5C28.5,11.3,25.3,11.3,23.4,10.5L1.5,1.7C.3,1.2,-0.2,.6,.0,.0L.0,5.2z" transform="translate(0.00,10.57)" fill="#ba141a" id="shape72" fill-rule="nonzero"/><path d="M52.4,9.4C54.4,10.2,54.4,11.5,52.4,12.3L30.5,21.1C28.5,21.9,25.3,21.9,23.4,21.1L1.5,12.3C-0.5,11.5,-0.5,10.2,1.5,9.4L23.4,.6C25.3,-0.2,28.5,-0.2,30.5,.6L52.4,9.4z" transform="translate(0.00,0.00)" fill="#ba141a" id="shape73" fill-rule="nonzero"/></g><g transform="translate(0.00,8.91)" id="group74"><path d="M.0,5.2C.0,5.8,.4,6.3,1.5,6.8L23.4,15.6C25.3,16.4,28.5,16.4,30.5,15.6L52.4,6.8C53.5,6.3,53.9,5.8,53.9,5.2L53.9,.2C53.9,.7,53.4,1.3,52.4,1.7L30.5,10.5C28.5,11.3,25.3,11.3,23.4,10.5L1.5,1.7C.3,1.2,-0.2,.6,.0,.0L.0,5.2z" transform="translate(0.00,10.57)" fill="#ba141a" id="shape75" fill-rule="nonzero"/><path d="M52.4,9.4C54.4,10.2,54.4,11.5,52.4,12.3L30.5,21.1C28.5,21.9,25.3,21.9,23.4,21.1L1.5,12.3C-0.5,11.5,-0.5,10.2,1.5,9.4L23.4,.6C25.3,-0.2,28.5,-0.2,30.5,.6L52.4,9.4z" transform="translate(0.00,0.00)" fill="#ba141a" id="shape76" fill-rule="nonzero"/></g><g id="group77"><path d="M.0,5.2C.0,5.8,.4,6.3,1.5,6.8L23.4,15.6C25.3,16.4,28.5,16.4,30.5,15.6L52.4,6.8C53.5,6.3,53.9,5.8,53.9,5.2L53.9,.2C53.9,.7,53.4,1.3,52.4,1.7L30.5,10.5C28.5,11.3,25.3,11.3,23.4,10.5L1.5,1.7C.3,1.2,-0.2,.6,.0,.0L.0,5.2z" transform="translate(0.00,10.57)" fill="#ba141a" id="shape78" fill-rule="nonzero"/><path d="M.0,5.2C.0,5.8,.4,6.3,1.5,6.8L23.4,15.6C25.3,16.4,28.5,16.4,30.5,15.6L52.4,6.8C53.5,6.3,53.9,5.8,53.9,5.2L53.9,.2C53.9,.7,53.4,1.3,52.4,1.7L30.5,10.5C28.5,11.3,25.3,11.3,23.4,10.5L1.5,1.7C.3,1.2,-0.2,.6,.0,.0L.0,5.2z" transform="translate(0.00,28.40)" fill="#1e1e1e" fill-opacity="0.25" id="shape79" fill-rule="nonzero"/><path d="M.0,5.2C.0,5.8,.4,6.3,1.5,6.8L23.4,15.6C25.3,16.4,28.5,16.4,30.5,15.6L52.4,6.8C53.5,6.3,53.9,5.8,53.9,5.2L53.9,.2C53.9,.7,53.4,1.3,52.4,1.7L30.5,10.5C28.5,11.3,25.3,11.3,23.4,10.5L1.5,1.7C.3,1.2,-0.2,.6,.0,.0L.0,5.2z" transform="translate(0.00,19.49)" fill="#1e1e1e" fill-opacity="0.25" id="shape80" fill-rule="nonzero"/><path d="M.0,5.2C.0,5.8,.4,6.3,1.5,6.8L23.4,15.6C25.3,16.4,28.5,16.4,30.5,15.6L52.4,6.8C53.5,6.3,53.9,5.8,53.9,5.2L53.9,.2C53.9,.7,53.4,1.3,52.4,1.7L30.5,10.5C28.5,11.3,25.3,11.3,23.4,10.5L1.5,1.7C.3,1.2,-0.2,.6,.0,.0L.0,5.2z" transform="translate(0.00,10.57)" fill="#1e1e1e" fill-opacity="0.25" id="shape81" fill-rule="nonzero"/><path d="M52.4,9.4C54.4,10.2,54.4,11.5,52.4,12.3L30.5,21.1C28.5,21.9,25.3,21.9,23.4,21.1L1.5,12.3C-0.5,11.5,-0.5,10.2,1.5,9.4L23.4,.6C25.3,-0.2,28.5,-0.2,30.5,.6L52.4,9.4z" transform="translate(0.00,-0.00)" fill="#ba141a" id="shape82" fill-rule="nonzero"/></g><path d="M10.9,4.8C8.4,5.9,4.4,5.9,1.9,4.8C-0.6,3.7,-0.6,1.9,1.9,.8C4.4,-0.3,8.4,-0.3,10.9,.8C13.4,1.9,13.4,3.7,10.9,4.8z" transform="translate(9.31,7.73)" fill="#ffffff" id="shape83" fill-rule="nonzero"/><path d="M.0,1.5L12.8,.0L9.4,5.6L.0,1.5z" transform="translate(18.52,13.81)" fill="#ffffff" id="shape84" fill-rule="nonzero"/><path d="M7.7,6.7L.0,3.3L7.7,.0L15.3,3.3L7.7,6.7z" transform="translate(30.92,7.20)" fill="#1e1e1e" fill-opacity="0.25" id="shape85" fill-rule="nonzero"/><path d="M7.7,6.7L.0,3.3L7.7,.0L7.7,6.7z" transform="translate(30.92,7.20)" fill="#1e1e1e" fill-opacity="0.25" id="shape86" fill-rule="nonzero"/><path d="M5.0,3.8L.0,3.3L4.4,2.2L3.9,.0L7.6,1.5L12.3,.6L10.1,2.6L13.6,4.3L8.5,4.0L6.0,5.9L5.0,3.8z" transform="translate(19.50,2.70)" fill="#ffffff" id="shape87" fill-rule="nonzero"/><text style="fill:#191919;font-family:Arial, Microsoft Yahei;font-size:9.00pt" xml:space="preserve"><tspan y="60.6" x="12.6">Redis</tspan></text></g><g transform="translate(146.28,531.80)" id="shape88"><path stroke="#191919" d="M.0,.0L.0,-84.3L40.8,-84.3" fill="none"/><path stroke="#191919" d="M40.8,-87.3L46.8,-84.3L40.8,-81.3L40.8,-87.3" fill="#191919" stroke-linecap="round" stroke-width="1"/></g><g transform="translate(146.50,391.20)" id="shape89"><path stroke="#191919" d="M.0,.0L.0,56.3L40.6,56.3" fill="none"/><path stroke="#191919" d="M40.6,53.3L46.6,56.3L40.6,59.3L40.6,53.3" fill="#191919" stroke-linecap="round" stroke-width="1"/></g><g transform="translate(193.12,395.34)" id="group90"><path stroke="#a5a5a5" d="M35.7,104.4L68.7,104.4C88.4,104.4,104.4,88.4,104.4,68.7L104.4,35.7C104.4,16.0,88.4,.0,68.7,.0L35.7,.0C16.0,.0,.0,16.0,.0,35.7L.0,68.7C.0,88.4,16.0,104.4,35.7,104.4z" fill="#ffffff" stroke-linecap="round" id="shape91" fill-rule="nonzero"/><path d="M7.7,.0C30.6,.0,30.6,.0,30.6,.0C34.8,.0,38.3,3.5,38.3,7.7C38.3,30.6,38.3,30.6,38.3,30.6C38.3,34.9,34.8,38.3,30.6,38.3C7.7,38.3,7.7,38.3,7.7,38.3C3.5,38.3,.0,34.9,.0,30.6C.0,7.7,.0,7.7,.0,7.7C.0,3.5,3.5,.0,7.7,.0z" transform="translate(33.06,33.04)" fill="#6abd46" id="shape92" fill-rule="nonzero"/><g transform="translate(34.99,43.14)" id="group93"><path d="M.0,1.9L.0,3.9L5.9,3.9L5.9,5.7L8.7,2.9L5.9,.0L5.9,1.9L.0,1.9z" transform="translate(-0.00,6.44)" fill="#ffffff" id="shape94" fill-rule="nonzero"/><path d="M7.2,1.6C4.1,1.6,1.6,4.2,1.6,7.4C1.6,10.6,4.1,13.2,7.2,13.2C10.3,13.2,12.8,10.6,12.8,7.4C12.8,4.2,10.3,1.6,7.2,1.6zM7.2,14.8C3.2,14.8,.0,11.5,.0,7.4C.0,3.3,3.2,.0,7.2,.0C11.2,.0,14.4,3.3,14.4,7.4C14.4,11.5,11.2,14.8,7.2,14.8z" transform="translate(10.14,1.90)" fill="#ffffff" id="shape95" fill-rule="nonzero"/><path d="M4.1,.0C5.0,1.7,5.0,1.7,5.0,1.7C.0,4.7,.0,4.7,.0,4.7C.4,5.2,.8,5.8,1.0,6.4C6.0,3.5,6.0,3.5,6.0,3.5C6.9,5.2,6.9,5.2,6.9,5.2C8.0,1.1,8.0,1.1,8.0,1.1L4.1,.0z" transform="translate(24.75,0.00)" fill="#ffffff" id="shape96" fill-rule="nonzero"/><path d="M8.2,2.9C5.4,.0,5.4,.0,5.4,.0C5.4,1.9,5.4,1.9,5.4,1.9C.0,1.9,.0,1.9,.0,1.9C.0,2.2,.0,2.5,.0,2.9C.0,3.2,.0,3.5,.0,3.8C5.4,3.8,5.4,3.8,5.4,3.8C5.4,5.7,5.4,5.7,5.4,5.7L8.2,2.9z" transform="translate(26.17,6.44)" fill="#ffffff" id="shape97" fill-rule="nonzero"/><path d="M8.0,4.9C6.9,1.2,6.9,1.2,6.9,1.2C6.0,2.7,6.0,2.7,6.0,2.7C1.0,.0,1.0,.0,1.0,.0C.8,.6,.4,1.1,.0,1.6C5.0,4.4,5.0,4.4,5.0,4.4C4.1,6.0,4.1,6.0,4.1,6.0L8.0,4.9z" transform="translate(24.75,12.16)" fill="#ffffff" id="shape98" fill-rule="nonzero"/></g><g transform="translate(14.83,14.99)" id="group99"><path d="M.0,1.8C.0,.8,.8,.0,1.8,.0C2.8,.0,3.6,.8,3.6,1.8C3.6,2.8,2.8,3.6,1.8,3.6C.8,3.6,.0,2.8,.0,1.8z" transform="translate(6.25,5.35)" fill="#d7e3bf" id="shape100" fill-rule="nonzero"/><path d="M.0,1.8C.0,.8,.8,.0,1.8,.0C2.8,.0,3.6,.8,3.6,1.8C3.6,2.8,2.8,3.6,1.8,3.6C.8,3.6,.0,2.8,.0,1.8z" transform="translate(35.55,0.00)" fill="#d7e3bf" id="shape101" fill-rule="nonzero"/><path d="M.0,1.8C.0,.8,.8,.0,1.8,.0C2.8,.0,3.6,.8,3.6,1.8C3.6,2.8,2.8,3.6,1.8,3.6C.8,3.6,.0,2.8,.0,1.8z" transform="translate(0.00,35.39)" fill="#d7e3bf" id="shape102" fill-rule="nonzero"/><path d="M.0,1.8C.0,.8,.8,.0,1.8,.0C2.8,.0,3.6,.8,3.6,1.8C3.6,2.8,2.8,3.6,1.8,3.6C.8,3.6,.0,2.8,.0,1.8z" transform="translate(6.40,65.13)" fill="#d7e3bf" id="shape103" fill-rule="nonzero"/><path d="M.0,1.8C.0,.8,.8,.0,1.8,.0C2.8,.0,3.6,.8,3.6,1.8C3.6,2.8,2.8,3.6,1.8,3.6C.8,3.6,.0,2.8,.0,1.8z" transform="translate(35.55,71.08)" fill="#d7e3bf" id="shape104" fill-rule="nonzero"/><path d="M.0,1.8C.0,.8,.8,.0,1.8,.0C2.8,.0,3.6,.8,3.6,1.8C3.6,2.8,2.8,3.6,1.8,3.6C.8,3.6,.0,2.8,.0,1.8z" transform="translate(65.59,65.13)" fill="#d7e3bf" id="shape105" fill-rule="nonzero"/><path d="M.0,1.8C.0,.8,.8,.0,1.8,.0C2.8,.0,3.6,.8,3.6,1.8C3.6,2.8,2.8,3.6,1.8,3.6C.8,3.6,.0,2.8,.0,1.8z" transform="translate(71.09,35.39)" fill="#d7e3bf" id="shape106" fill-rule="nonzero"/><path d="M.0,1.8C.0,.8,.8,.0,1.8,.0C2.8,.0,3.6,.8,3.6,1.8C3.6,2.8,2.8,3.6,1.8,3.6C.8,3.6,.0,2.8,.0,1.8z" transform="translate(65.59,5.35)" fill="#d7e3bf" id="shape107" fill-rule="nonzero"/></g><text style="fill:#191919;font-family:Arial;font-size:9.00pt" xml:space="preserve"><tspan y="129.9" x="34.5"> Nginx </tspan></text></g><g transform="translate(521.86,316.06)" id="shape108"><path stroke="#191919" d="M.0,.0L.0,16.2L100.3,16.2" fill="none"/><path stroke="#191919" d="M100.3,13.2L106.3,16.2L100.3,19.2L100.3,13.2" fill="#191919" stroke-linecap="round" stroke-width="1"/></g><g transform="translate(521.86,262.19)" id="shape109"><path stroke="#191919" d="M.0,.0L.0,-17.7L101.4,-17.7" fill="none"/><path stroke="#191919" d="M101.4,-20.7L107.4,-17.7L101.4,-14.7L101.4,-20.7" fill="#191919" stroke-linecap="round" stroke-width="1"/></g><g transform="translate(520.44,680.19)" id="shape110"><path stroke="#191919" d="M.0,.0L.0,-18.4L386.6,-18.4L386.6,-141.6" fill="none"/><path stroke="#191919" d="M383.6,-141.6L386.6,-147.6L389.6,-141.6L383.6,-141.6" fill="#191919" stroke-linecap="round" stroke-width="1"/><rect y="-25.4" fill="#ffffff" x="81.0" width="116.0" height="14.0"/><text style="fill:#191919;font-family:Arial;font-size:9.00pt" xml:space="preserve"><tspan y="-14.4" x="81.0">ex.financialMovement</tspan></text></g><g transform="translate(548.79,289.13)" id="shape111"><path stroke="#191919" d="M.0,.0L356.1,.0L356.1,158.0" fill="none"/><path stroke="#191919" d="M359.1,158.0L356.1,164.0L353.1,158.0L359.1,158.0" fill="#191919" stroke-linecap="round" stroke-width="1"/><rect y="-7.0" fill="#ffffff" x="212.7" width="85.3" height="14.0"/><text style="fill:#191919;font-family:Arial;font-size:9.00pt" xml:space="preserve"><tspan y="4.0" x="212.7">rk.wallettimeline</tspan></text></g><g transform="translate(245.32,395.34)" id="shape112"><path stroke="#191919" d="M.0,.0L.0,-202.3L107.2,-202.3" fill="none"/><path stroke="#191919" d="M107.2,-205.3L113.2,-202.3L107.2,-199.3L107.2,-205.3" fill="#191919" stroke-linecap="round" stroke-width="1"/></g><g transform="translate(245.32,499.74)" id="shape113"><path stroke="#191919" d="M.0,.0L.0,173.4L107.2,173.4" fill="none"/><path stroke="#191919" d="M107.2,170.4L113.2,173.4L107.2,176.4L107.2,170.4" fill="#191919" stroke-linecap="round" stroke-width="1"/></g><g transform="translate(620.99,376.37)" id="group114"><path d="M57.7,58.0L.0,58.0L.0,.0L58.0,.0L58.0,58.0L57.7,58.0z" fill="#f6f6f6" fill-opacity="0.00" id="shape115" fill-rule="nonzero"/><g transform="translate(7.12,3.45)" id="group116"><path d="M.0,.0L3.7,.0L3.7,11.0L.0,11.0L.0,.0z" transform="translate(21.37,25.55)" fill="#0078d7" id="shape117" fill-rule="nonzero"/><path d="M20.7,.0C9.5,.0,.0,4.5,.0,8.3L.0,43.2C.0,47.6,11.9,51.4,22.7,51.4C33.6,51.4,42.7,47.6,42.7,43.5L42.7,8.3C42.7,4.5,31.5,.0,20.7,.0zM21.4,3.5C29.2,3.5,35.6,5.2,35.6,7.6C35.6,10.0,29.2,11.7,21.4,11.7C13.6,11.7,7.1,10.0,7.1,7.3C7.1,4.5,13.6,3.5,21.4,3.5z" fill="#0078d7" id="shape118" fill-rule="nonzero"/></g><path d="M30.2,15.5C28.8,15.5,28.2,16.2,28.2,18.3L28.2,21.4C28.2,23.5,27.8,24.5,26.8,25.9C25.8,26.6,24.1,26.9,22.0,26.9L22.0,24.2C22.7,24.2,23.4,23.8,23.7,23.5C24.1,23.1,24.4,22.4,24.4,21.8L24.4,18.6C24.4,16.6,25.1,14.5,26.5,14.2C25.1,13.5,24.4,12.1,24.4,9.3L24.4,5.5C24.4,3.8,23.7,3.1,22.4,3.1L22.4,.0C22.7,.0,23.1,.0,23.4,.0C24.8,.0,26.1,.7,27.1,1.4C27.8,2.1,28.5,3.5,28.5,5.9L28.5,9.0C28.5,10.7,29.2,11.7,30.5,11.7L30.2,15.5zM8.1,26.6C6.1,26.6,4.4,26.2,3.4,25.5C2.7,24.9,2.0,23.5,2.0,21.1L2.0,17.3C2.0,15.5,1.4,14.5,.0,14.5L.0,12.1C1.4,12.1,2.0,11.0,2.0,9.3L2.0,5.9C2.0,3.8,2.4,2.8,3.4,1.7C4.4,1.0,5.8,.7,8.1,.7L8.1,3.5C6.8,3.5,6.1,4.1,6.1,5.9L6.1,9.0C6.1,11.0,5.4,13.1,4.1,13.8C5.4,14.5,6.1,15.9,6.1,18.6L6.1,21.8C6.1,22.8,6.4,23.5,6.8,23.8C7.1,24.2,7.8,24.5,8.5,24.5L8.1,26.6z" transform="translate(13.23,19.68)" fill="#ffffff" id="shape119" fill-rule="nonzero"/><text style="fill:#191919;font-family:Arial, Microsoft Yahei;font-size:9.00pt" xml:space="preserve"><tspan y="74.0" x="-2.3">bill-payment</tspan></text></g><g transform="translate(549.25,405.37)" id="shape120"><path stroke="#191919" d="M.0,.0L65.7,.0" fill="none"/><path stroke="#191919" d="M65.7,-3.0L71.7,.0L65.7,3.0L65.7,-3.0" fill="#191919" stroke-linecap="round" stroke-width="1"/></g><g transform="translate(358.52,173.07)" id="group121"><path d="M.0,20.0C.0,9.0,9.0,.0,20.0,.0C31.1,.0,40.0,9.0,40.0,20.0C40.0,31.1,31.1,40.0,20.0,40.0C9.0,40.0,.0,31.1,.0,20.0z" fill="#28a8e0" id="shape122" fill-rule="nonzero"/><g transform="translate(3.23,11.29)" id="group123"><path d="M.0,1.9L.0,3.9L5.8,3.9L5.8,5.8L8.4,2.9L5.8,.0L5.8,1.9L.0,1.9z" transform="translate(0.00,5.81)" fill="#ffffff" id="shape124" fill-rule="nonzero"/><path d="M7.1,1.6C4.0,1.6,1.5,4.1,1.5,7.1C1.5,10.2,4.0,12.7,7.1,12.7C10.2,12.7,12.7,10.2,12.7,7.1C12.7,4.1,10.2,1.6,7.1,1.6zM7.1,14.2C3.2,14.2,.0,11.1,.0,7.1C.0,3.2,3.2,.0,7.1,.0C11.0,.0,14.2,3.2,14.2,7.1C14.2,11.1,11.0,14.2,7.1,14.2z" transform="translate(9.68,1.94)" fill="#ffffff" id="shape125" fill-rule="nonzero"/><path d="M4.0,.0C4.9,1.5,4.9,1.5,4.9,1.5C.0,4.3,.0,4.3,.0,4.3C.5,4.7,.7,5.3,1.0,5.8C5.8,3.1,5.8,3.1,5.8,3.1C6.7,4.7,6.7,4.7,6.7,4.7C7.7,1.0,7.7,1.0,7.7,1.0L4.0,.0z" transform="translate(23.88,0.00)" fill="#ffffff" id="shape126" fill-rule="nonzero"/><path d="M7.7,2.9C5.1,.0,5.1,.0,5.1,.0C5.1,1.9,5.1,1.9,5.1,1.9C.0,1.9,.0,1.9,.0,1.9C.0,2.3,.0,2.6,.0,2.9C.0,3.3,.0,3.6,.0,3.9C5.1,3.9,5.1,3.9,5.1,3.9C5.1,5.8,5.1,5.8,5.1,5.8L7.7,2.9z" transform="translate(25.81,5.81)" fill="#ffffff" id="shape127" fill-rule="nonzero"/><path d="M7.7,4.8C6.7,1.2,6.7,1.2,6.7,1.2C5.8,2.7,5.8,2.7,5.8,2.7C1.0,.0,1.0,.0,1.0,.0C.7,.6,.5,1.1,.0,1.6C4.9,4.3,4.9,4.3,4.9,4.3C4.0,5.8,4.0,5.8,4.0,5.8L7.7,4.8z" transform="translate(23.88,11.61)" fill="#ffffff" id="shape128" fill-rule="nonzero"/></g><text style="fill:#191919;font-family:Arial;font-size:9.00pt" xml:space="preserve"><tspan y="56.0" x="-29.0">wallet-timeline-app</tspan></text></g><g transform="translate(496.31,93.81)" id="group129"><path d="M40.1,44.4C35.9,47.6,31.1,49.1,26.2,49.1C19.3,49.1,12.6,46.1,8.1,40.1C.4,30.1,2.4,15.8,12.3,8.2C16.5,5.0,21.4,3.4,26.2,3.4C33.1,3.4,39.8,6.5,44.4,12.5C52.0,22.5,50.1,36.8,40.1,44.4zM47.0,10.3C41.9,3.5,34.0,.0,26.2,.0C20.7,.0,15.0,1.8,10.3,5.4C-1.2,14.3,-3.4,30.7,5.5,42.2C10.6,49.0,18.3,52.5,26.2,52.5C31.8,52.5,37.5,50.7,42.2,47.1C53.7,38.3,55.9,21.8,47.0,10.3z" fill="#0078d7" id="shape130" fill-rule="nonzero"/><path d="M6.9,4.3C5.4,2.8,4.2,1.4,3.2,.0C1.0,4.5,.3,9.0,.0,12.8C.3,13.0,.3,13.3,.4,13.6C1.5,15.0,2.9,16.4,4.2,17.4C4.2,14.3,4.4,9.3,6.9,4.3z" transform="translate(5.68,28.32)" fill="#0078d7" id="shape131" fill-rule="nonzero"/><path d="M9.5,.0C7.4,1.4,5.3,3.2,3.1,5.5C1.9,6.8,.9,8.1,.0,9.3C1.0,10.8,2.1,12.4,3.6,13.9C4.7,12.4,6.1,10.7,7.7,9.2C9.8,7.2,11.8,5.6,13.7,4.3C12.4,2.9,10.8,1.4,9.5,.0z" transform="translate(11.24,14.98)" fill="#0078d7" id="shape132" fill-rule="nonzero"/><path d="M18.6,3.6C17.6,2.3,16.7,1.2,15.4,.3C12.0,-0.3,6.2,-0.2,.0,3.1C1.4,4.7,2.9,6.2,4.3,7.4C12.6,2.9,18.6,3.6,18.6,3.6z" transform="translate(23.82,10.04)" fill="#0078d7" id="shape133" fill-rule="nonzero"/><path d="M3.7,16.5C4.4,15.3,5.1,14.0,5.9,12.6C2.3,6.9,2.4,2.2,2.8,.0C2.0,1.0,1.0,1.9,.3,2.9C-0.3,6.1,-0.3,10.9,3.7,16.5z" transform="translate(5.28,11.60)" fill="#0078d7" id="shape134" fill-rule="nonzero"/><path d="M6.5,3.9C4.8,2.5,3.4,1.3,2.2,.0C1.4,1.3,.7,2.4,.0,3.6C1.1,4.7,2.5,6.0,4.0,7.1C13.3,14.4,22.6,15.1,27.9,15.1C28.1,15.1,29.8,12.9,30.8,11.5C28.4,12.1,18.4,13.3,6.5,3.9z" transform="translate(12.71,29.02)" fill="#0078d7" id="shape135" fill-rule="nonzero"/><path d="M.0,3.9C1.0,5.3,2.2,6.8,3.8,8.2C4.3,6.9,5.0,5.8,6.0,4.6C4.4,3.1,3.3,1.5,2.4,.0C1.4,1.4,.7,2.6,.0,3.9z" transform="translate(8.94,24.26)" fill="#0078d7" id="shape136" fill-rule="nonzero"/><path d="M.0,1.9C8.6,9.9,18.6,16.5,21.2,18.3C21.5,17.7,21.6,17.1,21.8,16.4C19.0,14.3,11.8,8.8,3.1,.0C2.2,.6,1.1,.9,.0,1.9z" transform="translate(24.94,17.37)" fill="#0078d7" id="shape137" fill-rule="nonzero"/><path d="M9.6,7.2C7.5,5.0,5.3,2.5,3.1,.0C2.1,.3,1.0,.7,.0,1.3C1.5,3.9,3.9,6.6,6.2,9.1C7.5,8.4,8.5,7.8,9.6,7.2z" transform="translate(14.38,5.92)" fill="#0078d7" id="shape138" fill-rule="nonzero"/><path d="M3.4,.0C2.2,.6,1.0,1.1,.0,1.9C1.4,3.3,2.8,4.8,4.3,6.2C5.5,5.5,6.4,4.9,7.5,4.4C6.1,3.0,4.9,1.5,3.4,.0z" transform="translate(20.60,13.11)" fill="#0078d7" id="shape139" fill-rule="nonzero"/><path d="M1.9,1.0C-0.2,2.7,-0.6,5.7,.9,7.8C2.6,10.0,5.6,10.3,7.8,8.8C9.9,7.1,10.4,4.1,8.8,1.9C7.2,-0.2,4.1,-0.6,1.9,1.0z" transform="translate(33.29,23.81)" fill="#0078d7" id="shape140" fill-rule="nonzero"/><path d="M1.8,1.0C-0.2,2.5,-0.6,5.4,.9,7.4C2.5,9.3,5.4,9.7,7.3,8.2C9.3,6.7,9.7,3.9,8.2,1.8C6.6,-0.3,3.8,-0.6,1.8,1.0z" transform="translate(23.30,36.18)" fill="#0078d7" id="shape141" fill-rule="nonzero"/><path d="M2.7,1.5C-0.4,3.8,-0.9,8.1,1.5,11.2C3.8,14.3,8.1,14.8,11.2,12.5C14.2,10.1,14.8,5.8,12.4,2.7C10.1,-0.3,5.6,-0.9,2.7,1.5z" transform="translate(5.38,21.22)" fill="#0078d7" id="shape142" fill-rule="nonzero"/><text style="fill:#191919;font-family:Arial, Microsoft Yahei;font-size:9.00pt" xml:space="preserve"><tspan y="68.5" x="-10.7">wallet-timeline</tspan></text></g><g transform="translate(627.18,133.06)" id="group143"><path d="M52.2,52.5L.0,52.5L.0,.0L52.5,.0L52.5,52.5L52.2,52.5z" fill="#f6f6f6" fill-opacity="0.00" id="shape144" fill-rule="nonzero"/><g transform="translate(6.44,3.12)" id="group145"><path d="M.0,.0L3.4,.0L3.4,10.0L.0,10.0L.0,.0z" transform="translate(19.33,23.11)" fill="#0078d7" id="shape146" fill-rule="nonzero"/><path d="M18.7,.0C8.6,.0,.0,4.1,.0,7.5L.0,39.0C.0,43.1,10.7,46.5,20.6,46.5C30.4,46.5,38.7,43.1,38.7,39.4L38.7,7.5C38.7,4.1,28.5,.0,18.7,.0zM19.3,3.1C26.4,3.1,32.2,4.7,32.2,6.9C32.2,9.1,26.4,10.6,19.3,10.6C12.3,10.6,6.4,9.1,6.4,6.6C6.4,4.1,12.3,3.1,19.3,3.1z" fill="#0078d7" id="shape147" fill-rule="nonzero"/></g><path d="M27.3,14.1C26.1,14.1,25.5,14.7,25.5,16.6L25.5,19.4C25.5,21.2,25.2,22.2,24.2,23.4C23.3,24.1,21.8,24.4,19.9,24.4L19.9,21.9C20.6,21.9,21.2,21.6,21.5,21.2C21.8,20.9,22.1,20.3,22.1,19.7L22.1,16.9C22.1,15.0,22.7,13.1,23.9,12.8C22.7,12.2,22.1,10.9,22.1,8.4L22.1,5.0C22.1,3.4,21.5,2.8,20.3,2.8L20.3,.0C20.6,.0,20.9,.0,21.2,.0C22.4,.0,23.6,.6,24.6,1.2C25.2,1.9,25.8,3.1,25.8,5.3L25.8,8.1C25.8,9.7,26.4,10.6,27.6,10.6L27.3,14.1zM7.4,24.1C5.5,24.1,4.0,23.7,3.1,23.1C2.5,22.5,1.8,21.2,1.8,19.1L1.8,15.6C1.8,14.1,1.2,13.1,.0,13.1L.0,10.9C1.2,10.9,1.8,10.0,1.8,8.4L1.8,5.3C1.8,3.4,2.1,2.5,3.1,1.6C4.0,.9,5.2,.6,7.4,.6L7.4,3.1C6.1,3.1,5.5,3.7,5.5,5.3L5.5,8.1C5.5,10.0,4.9,11.9,3.7,12.5C4.9,13.1,5.5,14.4,5.5,16.9L5.5,19.7C5.5,20.6,5.8,21.2,6.1,21.6C6.4,21.9,7.1,22.2,7.7,22.2L7.4,24.1z" transform="translate(11.97,17.80)" fill="#ffffff" id="shape148" fill-rule="nonzero"/><text style="fill:#191919;font-family:Arial, Microsoft Yahei;font-size:9.00pt" xml:space="preserve"><tspan y="68.5" x="-10.7">wallet-timeline</tspan></text></g><g transform="translate(627.70,58.80)" id="group149"><g transform="translate(0.00,17.37)" id="group150"><path d="M.0,5.1C.0,5.6,.4,6.2,1.4,6.6L22.8,15.2C24.7,16.0,27.8,16.0,29.7,15.2L51.0,6.6C52.1,6.2,52.6,5.6,52.5,5.1L52.5,.2C52.5,.7,52.1,1.2,51.0,1.7L29.7,10.2C27.8,11.0,24.7,11.0,22.8,10.2L1.4,1.7C.3,1.2,-0.1,.6,.0,.0L.0,5.1z" transform="translate(0.00,10.30)" fill="#ba141a" id="shape151" fill-rule="nonzero"/><path d="M51.0,9.2C53.0,9.9,53.0,11.2,51.0,12.0L29.7,20.5C27.8,21.3,24.7,21.3,22.8,20.5L1.4,12.0C-0.5,11.2,-0.5,9.9,1.4,9.2L22.8,.6C24.7,-0.2,27.8,-0.2,29.7,.6L51.0,9.2z" transform="translate(0.00,0.00)" fill="#ba141a" id="shape152" fill-rule="nonzero"/></g><g transform="translate(0.00,8.68)" id="group153"><path d="M.0,5.1C.0,5.6,.4,6.2,1.4,6.6L22.8,15.2C24.7,16.0,27.8,16.0,29.7,15.2L51.0,6.6C52.1,6.2,52.6,5.6,52.5,5.1L52.5,.2C52.5,.7,52.1,1.2,51.0,1.7L29.7,10.2C27.8,11.0,24.7,11.0,22.8,10.2L1.4,1.7C.3,1.2,-0.1,.6,.0,.0L.0,5.1z" transform="translate(0.00,10.30)" fill="#ba141a" id="shape154" fill-rule="nonzero"/><path d="M51.0,9.2C53.0,9.9,53.0,11.2,51.0,12.0L29.7,20.5C27.8,21.3,24.7,21.3,22.8,20.5L1.4,12.0C-0.5,11.2,-0.5,9.9,1.4,9.2L22.8,.6C24.7,-0.2,27.8,-0.2,29.7,.6L51.0,9.2z" transform="translate(0.00,0.00)" fill="#ba141a" id="shape155" fill-rule="nonzero"/></g><g id="group156"><path d="M.0,5.1C.0,5.6,.4,6.2,1.4,6.6L22.8,15.2C24.7,16.0,27.8,16.0,29.7,15.2L51.0,6.6C52.1,6.2,52.6,5.6,52.5,5.1L52.5,.2C52.5,.7,52.1,1.2,51.0,1.7L29.7,10.2C27.8,11.0,24.7,11.0,22.8,10.2L1.4,1.7C.3,1.2,-0.1,.6,.0,.0L.0,5.1z" transform="translate(0.00,10.30)" fill="#ba141a" id="shape157" fill-rule="nonzero"/><path d="M.0,5.1C.0,5.6,.4,6.2,1.4,6.6L22.8,15.2C24.7,16.0,27.8,16.0,29.7,15.2L51.0,6.6C52.1,6.2,52.6,5.6,52.5,5.1L52.5,.2C52.5,.7,52.1,1.2,51.0,1.7L29.7,10.2C27.8,11.0,24.7,11.0,22.8,10.2L1.4,1.7C.3,1.2,-0.1,.6,.0,.0L.0,5.1z" transform="translate(0.00,27.67)" fill="#1e1e1e" fill-opacity="0.25" id="shape158" fill-rule="nonzero"/><path d="M.0,5.1C.0,5.6,.4,6.2,1.4,6.6L22.8,15.2C24.7,16.0,27.8,16.0,29.7,15.2L51.0,6.6C52.1,6.2,52.6,5.6,52.5,5.1L52.5,.2C52.5,.7,52.1,1.2,51.0,1.7L29.7,10.2C27.8,11.0,24.7,11.0,22.8,10.2L1.4,1.7C.3,1.2,-0.1,.6,.0,.0L.0,5.1z" transform="translate(0.00,18.99)" fill="#1e1e1e" fill-opacity="0.25" id="shape159" fill-rule="nonzero"/><path d="M.0,5.1C.0,5.6,.4,6.2,1.4,6.6L22.8,15.2C24.7,16.0,27.8,16.0,29.7,15.2L51.0,6.6C52.1,6.2,52.6,5.6,52.5,5.1L52.5,.2C52.5,.7,52.1,1.2,51.0,1.7L29.7,10.2C27.8,11.0,24.7,11.0,22.8,10.2L1.4,1.7C.3,1.2,-0.1,.6,.0,.0L.0,5.1z" transform="translate(0.00,10.30)" fill="#1e1e1e" fill-opacity="0.25" id="shape160" fill-rule="nonzero"/><path d="M51.0,9.2C53.0,9.9,53.0,11.2,51.0,12.0L29.7,20.5C27.8,21.3,24.7,21.3,22.8,20.5L1.4,12.0C-0.5,11.2,-0.5,9.9,1.4,9.2L22.8,.6C24.7,-0.2,27.8,-0.2,29.7,.6L51.0,9.2z" transform="translate(0.00,-0.00)" fill="#ba141a" id="shape161" fill-rule="nonzero"/></g><path d="M10.6,4.6C8.2,5.7,4.3,5.7,1.8,4.6C-0.6,3.6,-0.6,1.9,1.8,.8C4.3,-0.3,8.2,-0.3,10.6,.8C13.1,1.9,13.1,3.6,10.6,4.6z" transform="translate(9.07,7.53)" fill="#ffffff" id="shape162" fill-rule="nonzero"/><path d="M.0,1.5L12.5,.0L9.1,5.5L.0,1.5z" transform="translate(18.05,13.45)" fill="#ffffff" id="shape163" fill-rule="nonzero"/><path d="M7.5,6.5L.0,3.3L7.5,.0L14.9,3.3L7.5,6.5z" transform="translate(30.13,7.02)" fill="#1e1e1e" fill-opacity="0.25" id="shape164" fill-rule="nonzero"/><path d="M7.5,6.5L.0,3.3L7.5,.0L7.5,6.5z" transform="translate(30.13,7.02)" fill="#1e1e1e" fill-opacity="0.25" id="shape165" fill-rule="nonzero"/><path d="M4.9,3.7L.0,3.2L4.3,2.2L3.8,.0L7.4,1.5L11.9,.6L9.9,2.5L13.2,4.1L8.3,3.9L5.9,5.8L4.9,3.7z" transform="translate(18.99,2.63)" fill="#ffffff" id="shape166" fill-rule="nonzero"/><text style="fill:#191919;font-family:Arial, Microsoft Yahei;font-size:9.00pt" xml:space="preserve"><tspan y="59.4" x="11.9">Redis</tspan></text></g><g transform="translate(522.55,146.28)" id="shape167"><path stroke="#191919" d="M.0,.0L.0,13.0L98.6,13.0" fill="none"/><path stroke="#191919" d="M98.6,10.0L104.6,13.0L98.6,16.0L98.6,10.0" fill="#191919" stroke-linecap="round" stroke-width="1"/></g><g transform="translate(522.55,93.81)" id="shape168"><path stroke="#191919" d="M.0,.0L.0,-13.3L99.2,-13.3" fill="none"/><path stroke="#191919" d="M99.2,-16.3L105.2,-13.3L99.2,-10.3L99.2,-16.3" fill="#191919" stroke-linecap="round" stroke-width="1"/></g><g transform="translate(398.52,193.07)" id="shape169"><path stroke="#191919" d="M.0,.0L44.1,.0L44.1,-73.0L91.8,-73.0" fill="none"/><path stroke="#191919" d="M91.8,-76.0L97.8,-73.0L91.8,-70.0L91.8,-76.0" fill="#191919" stroke-linecap="round" stroke-width="1"/></g><g transform="translate(398.52,193.07)" id="shape170"><path stroke="#191919" d="M.0,.0L44.1,.0L44.1,96.1L90.4,96.1" fill="none"/><path stroke="#191919" d="M90.4,93.1L96.4,96.1L90.4,99.1L90.4,93.1" fill="#191919" stroke-linecap="round" stroke-width="1"/></g><g transform="translate(358.52,653.16)" id="group171"><path d="M.0,20.0C.0,9.0,9.0,.0,20.0,.0C31.1,.0,40.0,9.0,40.0,20.0C40.0,31.1,31.1,40.0,20.0,40.0C9.0,40.0,.0,31.1,.0,20.0z" fill="#28a8e0" id="shape172" fill-rule="nonzero"/><g transform="translate(3.23,11.29)" id="group173"><path d="M.0,1.9L.0,3.9L5.8,3.9L5.8,5.8L8.4,2.9L5.8,.0L5.8,1.9L.0,1.9z" transform="translate(0.00,5.81)" fill="#ffffff" id="shape174" fill-rule="nonzero"/><path d="M7.1,1.6C4.0,1.6,1.5,4.1,1.5,7.1C1.5,10.2,4.0,12.7,7.1,12.7C10.2,12.7,12.7,10.2,12.7,7.1C12.7,4.1,10.2,1.6,7.1,1.6zM7.1,14.2C3.2,14.2,.0,11.1,.0,7.1C.0,3.2,3.2,.0,7.1,.0C11.0,.0,14.2,3.2,14.2,7.1C14.2,11.1,11.0,14.2,7.1,14.2z" transform="translate(9.68,1.94)" fill="#ffffff" id="shape175" fill-rule="nonzero"/><path d="M4.0,.0C4.9,1.5,4.9,1.5,4.9,1.5C.0,4.3,.0,4.3,.0,4.3C.5,4.7,.7,5.3,1.0,5.8C5.8,3.1,5.8,3.1,5.8,3.1C6.7,4.7,6.7,4.7,6.7,4.7C7.7,1.0,7.7,1.0,7.7,1.0L4.0,.0z" transform="translate(23.88,0.00)" fill="#ffffff" id="shape176" fill-rule="nonzero"/><path d="M7.7,2.9C5.1,.0,5.1,.0,5.1,.0C5.1,1.9,5.1,1.9,5.1,1.9C.0,1.9,.0,1.9,.0,1.9C.0,2.3,.0,2.6,.0,2.9C.0,3.3,.0,3.6,.0,3.9C5.1,3.9,5.1,3.9,5.1,3.9C5.1,5.8,5.1,5.8,5.1,5.8L7.7,2.9z" transform="translate(25.81,5.81)" fill="#ffffff" id="shape177" fill-rule="nonzero"/><path d="M7.7,4.8C6.7,1.2,6.7,1.2,6.7,1.2C5.8,2.7,5.8,2.7,5.8,2.7C1.0,.0,1.0,.0,1.0,.0C.7,.6,.5,1.1,.0,1.6C4.9,4.3,4.9,4.3,4.9,4.3C4.0,5.8,4.0,5.8,4.0,5.8L7.7,4.8z" transform="translate(23.88,11.61)" fill="#ffffff" id="shape178" fill-rule="nonzero"/></g><text style="fill:#191919;font-family:Arial;font-size:9.00pt" xml:space="preserve"><tspan y="56.0" x="-20.0">wallet-user-app</tspan></text></g><g transform="translate(491.44,566.98)" id="group179"><path d="M44.3,49.1C39.7,52.6,34.3,54.3,29.0,54.3C21.3,54.3,14.0,50.9,8.9,44.3C.5,33.3,2.6,17.5,13.6,9.0C18.2,5.5,23.6,3.8,29.0,3.8C36.6,3.8,44.0,7.2,49.0,13.8C57.5,24.8,55.3,40.7,44.3,49.1zM52.0,11.3C46.3,3.8,37.6,.0,29.0,.0C22.9,.0,16.6,2.0,11.4,6.0C-1.3,15.8,-3.8,33.9,6.0,46.7C11.7,54.2,20.3,58.0,29.0,58.0C35.1,58.0,41.4,56.0,46.6,52.0C59.3,42.4,61.8,24.1,52.0,11.3z" fill="#0078d7" id="shape180" fill-rule="nonzero"/><path d="M7.7,4.7C6.0,3.1,4.6,1.5,3.5,.0C1.1,4.9,.3,10.0,.0,14.1C.3,14.4,.3,14.7,.5,15.0C1.7,16.6,3.2,18.1,4.6,19.2C4.6,15.8,4.9,10.3,7.7,4.7z" transform="translate(6.27,31.30)" fill="#0078d7" id="shape181" fill-rule="nonzero"/><path d="M10.4,.0C8.1,1.5,5.9,3.5,3.4,6.1C2.1,7.5,.9,8.9,.0,10.3C1.1,12.0,2.3,13.7,4.0,15.4C5.2,13.7,6.7,11.8,8.6,10.1C10.9,8.0,13.0,6.2,15.2,4.8C13.7,3.2,12.0,1.5,10.4,.0z" transform="translate(12.42,16.55)" fill="#0078d7" id="shape182" fill-rule="nonzero"/><path d="M20.6,4.0C19.5,2.6,18.4,1.4,17.0,.3C13.2,-0.3,6.9,-0.2,.0,3.5C1.5,5.1,3.2,6.9,4.7,8.2C13.9,3.2,20.6,4.0,20.6,4.0z" transform="translate(26.33,11.10)" fill="#0078d7" id="shape183" fill-rule="nonzero"/><path d="M4.1,18.3C4.8,16.9,5.6,15.5,6.5,14.0C2.5,7.7,2.7,2.4,3.1,.0C2.2,1.1,1.1,2.2,.4,3.2C-0.4,6.8,-0.4,12.0,4.1,18.3z" transform="translate(5.84,12.82)" fill="#0078d7" id="shape184" fill-rule="nonzero"/><path d="M7.2,4.3C5.3,2.8,3.8,1.4,2.4,.0C1.5,1.4,.8,2.6,.0,4.0C1.2,5.2,2.8,6.6,4.4,7.8C14.7,15.9,25.0,16.7,30.8,16.7C31.1,16.7,33.0,14.3,34.0,12.7C31.4,13.4,20.3,14.7,7.2,4.3z" transform="translate(14.05,32.07)" fill="#0078d7" id="shape185" fill-rule="nonzero"/><path d="M.0,4.3C1.1,5.8,2.4,7.5,4.1,9.0C4.8,7.7,5.5,6.4,6.6,5.1C4.9,3.4,3.7,1.7,2.6,.0C1.6,1.5,.8,2.9,.0,4.3z" transform="translate(9.88,26.82)" fill="#0078d7" id="shape186" fill-rule="nonzero"/><path d="M.0,2.2C9.5,10.9,20.5,18.3,23.4,20.3C23.7,19.5,23.9,18.9,24.1,18.1C21.0,15.8,13.0,9.7,3.4,.0C2.4,.6,1.2,1.0,.0,2.2z" transform="translate(27.57,19.20)" fill="#0078d7" id="shape187" fill-rule="nonzero"/><path d="M10.6,8.0C8.3,5.5,5.9,2.8,3.4,.0C2.3,.3,1.1,.8,.0,1.4C1.7,4.3,4.3,7.3,6.9,10.1C8.3,9.3,9.4,8.6,10.6,8.0z" transform="translate(15.89,6.54)" fill="#0078d7" id="shape188" fill-rule="nonzero"/><path d="M3.7,.0C2.5,.6,1.1,1.2,.0,2.1C1.5,3.7,3.1,5.3,4.8,6.8C6.0,6.1,7.1,5.5,8.3,4.8C6.8,3.3,5.4,1.7,3.7,.0z" transform="translate(22.77,14.49)" fill="#0078d7" id="shape189" fill-rule="nonzero"/><path d="M2.1,1.1C-0.2,3.0,-0.7,6.3,1.0,8.6C2.9,11.1,6.2,11.4,8.7,9.7C11.0,7.9,11.4,4.5,9.7,2.0C7.9,-0.3,4.6,-0.7,2.1,1.1z" transform="translate(36.79,26.32)" fill="#0078d7" id="shape190" fill-rule="nonzero"/><path d="M1.9,1.1C-0.2,2.7,-0.7,6.0,1.0,8.1C2.7,10.3,5.9,10.8,8.1,9.1C10.2,7.4,10.7,4.3,9.0,2.0C7.3,-0.3,4.2,-0.6,1.9,1.1z" transform="translate(25.75,39.98)" fill="#0078d7" id="shape191" fill-rule="nonzero"/><path d="M3.0,1.6C-0.4,4.2,-1.0,9.0,1.6,12.4C4.2,15.8,9.0,16.4,12.3,13.8C15.7,11.2,16.3,6.4,13.7,3.0C11.1,-0.4,6.2,-1.0,3.0,1.6z" transform="translate(5.95,23.45)" fill="#0078d7" id="shape192" fill-rule="nonzero"/><text style="fill:#191919;font-family:Arial, Microsoft Yahei;font-size:9.00pt" xml:space="preserve"><tspan y="74.0" x="1.0">wallet-user</tspan></text></g><g transform="translate(622.12,566.98)" id="group193"><path d="M57.7,58.0L.0,58.0L.0,.0L58.0,.0L58.0,58.0L57.7,58.0z" fill="#f6f6f6" fill-opacity="0.00" id="shape194" fill-rule="nonzero"/><g transform="translate(7.12,3.45)" id="group195"><path d="M.0,.0L3.7,.0L3.7,11.0L.0,11.0L.0,.0z" transform="translate(21.37,25.55)" fill="#0078d7" id="shape196" fill-rule="nonzero"/><path d="M20.7,.0C9.5,.0,.0,4.5,.0,8.3L.0,43.2C.0,47.6,11.9,51.4,22.7,51.4C33.6,51.4,42.7,47.6,42.7,43.5L42.7,8.3C42.7,4.5,31.5,.0,20.7,.0zM21.4,3.5C29.2,3.5,35.6,5.2,35.6,7.6C35.6,10.0,29.2,11.7,21.4,11.7C13.6,11.7,7.1,10.0,7.1,7.3C7.1,4.5,13.6,3.5,21.4,3.5z" fill="#0078d7" id="shape197" fill-rule="nonzero"/></g><path d="M30.2,15.5C28.8,15.5,28.2,16.2,28.2,18.3L28.2,21.4C28.2,23.5,27.8,24.5,26.8,25.9C25.8,26.6,24.1,26.9,22.0,26.9L22.0,24.2C22.7,24.2,23.4,23.8,23.7,23.5C24.1,23.1,24.4,22.4,24.4,21.8L24.4,18.6C24.4,16.6,25.1,14.5,26.5,14.2C25.1,13.5,24.4,12.1,24.4,9.3L24.4,5.5C24.4,3.8,23.7,3.1,22.4,3.1L22.4,.0C22.7,.0,23.1,.0,23.4,.0C24.8,.0,26.1,.7,27.1,1.4C27.8,2.1,28.5,3.5,28.5,5.9L28.5,9.0C28.5,10.7,29.2,11.7,30.5,11.7L30.2,15.5zM8.1,26.6C6.1,26.6,4.4,26.2,3.4,25.5C2.7,24.9,2.0,23.5,2.0,21.1L2.0,17.3C2.0,15.5,1.4,14.5,.0,14.5L.0,12.1C1.4,12.1,2.0,11.0,2.0,9.3L2.0,5.9C2.0,3.8,2.4,2.8,3.4,1.7C4.4,1.0,5.8,.7,8.1,.7L8.1,3.5C6.8,3.5,6.1,4.1,6.1,5.9L6.1,9.0C6.1,11.0,5.4,13.1,4.1,13.8C5.4,14.5,6.1,15.9,6.1,18.6L6.1,21.8C6.1,22.8,6.4,23.5,6.8,23.8C7.1,24.2,7.8,24.5,8.5,24.5L8.1,26.6z" transform="translate(13.23,19.68)" fill="#ffffff" id="shape198" fill-rule="nonzero"/><text style="fill:#191919;font-family:Arial, Microsoft Yahei;font-size:9.00pt" xml:space="preserve"><tspan y="74.0" x="1.0">wallet-user</tspan></text></g><g transform="translate(549.44,595.98)" id="shape199"><path stroke="#191919" d="M.0,.0L66.7,.0" fill="none"/><path stroke="#191919" d="M66.7,-3.0L72.7,.0L66.7,3.0L66.7,-3.0" fill="#191919" stroke-linecap="round" stroke-width="1"/></g><g transform="translate(491.25,461.90)" id="group200"><path d="M44.3,49.1C39.7,52.6,34.3,54.3,29.0,54.3C21.3,54.3,14.0,50.9,8.9,44.3C.5,33.3,2.6,17.5,13.6,9.0C18.2,5.5,23.6,3.8,29.0,3.8C36.6,3.8,44.0,7.2,49.0,13.8C57.5,24.8,55.3,40.7,44.3,49.1zM52.0,11.3C46.3,3.8,37.6,.0,29.0,.0C22.9,.0,16.6,2.0,11.4,6.0C-1.3,15.8,-3.8,33.9,6.0,46.7C11.7,54.2,20.3,58.0,29.0,58.0C35.1,58.0,41.4,56.0,46.6,52.0C59.3,42.4,61.8,24.1,52.0,11.3z" fill="#0078d7" id="shape201" fill-rule="nonzero"/><path d="M7.7,4.7C6.0,3.1,4.6,1.5,3.5,.0C1.1,4.9,.3,10.0,.0,14.1C.3,14.4,.3,14.7,.5,15.0C1.7,16.6,3.2,18.1,4.6,19.2C4.6,15.8,4.9,10.3,7.7,4.7z" transform="translate(6.27,31.30)" fill="#0078d7" id="shape202" fill-rule="nonzero"/><path d="M10.4,.0C8.1,1.5,5.9,3.5,3.4,6.1C2.1,7.5,.9,8.9,.0,10.3C1.1,12.0,2.3,13.7,4.0,15.4C5.2,13.7,6.7,11.8,8.6,10.1C10.9,8.0,13.0,6.2,15.2,4.8C13.7,3.2,12.0,1.5,10.4,.0z" transform="translate(12.42,16.55)" fill="#0078d7" id="shape203" fill-rule="nonzero"/><path d="M20.6,4.0C19.5,2.6,18.4,1.4,17.0,.3C13.2,-0.3,6.9,-0.2,.0,3.5C1.5,5.1,3.2,6.9,4.7,8.2C13.9,3.2,20.6,4.0,20.6,4.0z" transform="translate(26.33,11.10)" fill="#0078d7" id="shape204" fill-rule="nonzero"/><path d="M4.1,18.3C4.8,16.9,5.6,15.5,6.5,14.0C2.5,7.7,2.7,2.4,3.1,.0C2.2,1.1,1.1,2.2,.4,3.2C-0.4,6.8,-0.4,12.0,4.1,18.3z" transform="translate(5.84,12.82)" fill="#0078d7" id="shape205" fill-rule="nonzero"/><path d="M7.2,4.3C5.3,2.8,3.8,1.4,2.4,.0C1.5,1.4,.8,2.6,.0,4.0C1.2,5.2,2.8,6.6,4.4,7.8C14.7,15.9,25.0,16.7,30.8,16.7C31.1,16.7,33.0,14.3,34.0,12.7C31.4,13.4,20.3,14.7,7.2,4.3z" transform="translate(14.05,32.07)" fill="#0078d7" id="shape206" fill-rule="nonzero"/><path d="M.0,4.3C1.1,5.8,2.4,7.5,4.1,9.0C4.8,7.7,5.5,6.4,6.6,5.1C4.9,3.4,3.7,1.7,2.6,.0C1.6,1.5,.8,2.9,.0,4.3z" transform="translate(9.88,26.82)" fill="#0078d7" id="shape207" fill-rule="nonzero"/><path d="M.0,2.2C9.5,10.9,20.5,18.3,23.4,20.3C23.7,19.5,23.9,18.9,24.1,18.1C21.0,15.8,13.0,9.7,3.4,.0C2.4,.6,1.2,1.0,.0,2.2z" transform="translate(27.57,19.20)" fill="#0078d7" id="shape208" fill-rule="nonzero"/><path d="M10.6,8.0C8.3,5.5,5.9,2.8,3.4,.0C2.3,.3,1.1,.8,.0,1.4C1.7,4.3,4.3,7.3,6.9,10.1C8.3,9.3,9.4,8.6,10.6,8.0z" transform="translate(15.89,6.54)" fill="#0078d7" id="shape209" fill-rule="nonzero"/><path d="M3.7,.0C2.5,.6,1.1,1.2,.0,2.1C1.5,3.7,3.1,5.3,4.8,6.8C6.0,6.1,7.1,5.5,8.3,4.8C6.8,3.3,5.4,1.7,3.7,.0z" transform="translate(22.77,14.49)" fill="#0078d7" id="shape210" fill-rule="nonzero"/><path d="M2.1,1.1C-0.2,3.0,-0.7,6.3,1.0,8.6C2.9,11.1,6.2,11.4,8.7,9.7C11.0,7.9,11.4,4.5,9.7,2.0C7.9,-0.3,4.6,-0.7,2.1,1.1z" transform="translate(36.79,26.32)" fill="#0078d7" id="shape211" fill-rule="nonzero"/><path d="M1.9,1.1C-0.2,2.7,-0.7,6.0,1.0,8.1C2.7,10.3,5.9,10.8,8.1,9.1C10.2,7.4,10.7,4.3,9.0,2.0C7.3,-0.3,4.2,-0.6,1.9,1.1z" transform="translate(25.75,39.98)" fill="#0078d7" id="shape212" fill-rule="nonzero"/><path d="M3.0,1.6C-0.4,4.2,-1.0,9.0,1.6,12.4C4.2,15.8,9.0,16.4,12.3,13.8C15.7,11.2,16.3,6.4,13.7,3.0C11.1,-0.4,6.2,-1.0,3.0,1.6z" transform="translate(5.95,23.45)" fill="#0078d7" id="shape213" fill-rule="nonzero"/><text style="fill:#191919;font-family:Arial, Microsoft Yahei;font-size:9.00pt" xml:space="preserve"><tspan y="74.0" x="-2.3">bill-payment</tspan></text></g><g transform="translate(620.99,461.90)" id="group214"><path d="M57.7,58.0L.0,58.0L.0,.0L58.0,.0L58.0,58.0L57.7,58.0z" fill="#f6f6f6" fill-opacity="0.00" id="shape215" fill-rule="nonzero"/><g transform="translate(7.12,3.45)" id="group216"><path d="M.0,.0L3.7,.0L3.7,11.0L.0,11.0L.0,.0z" transform="translate(21.37,25.55)" fill="#0078d7" id="shape217" fill-rule="nonzero"/><path d="M20.7,.0C9.5,.0,.0,4.5,.0,8.3L.0,43.2C.0,47.6,11.9,51.4,22.7,51.4C33.6,51.4,42.7,47.6,42.7,43.5L42.7,8.3C42.7,4.5,31.5,.0,20.7,.0zM21.4,3.5C29.2,3.5,35.6,5.2,35.6,7.6C35.6,10.0,29.2,11.7,21.4,11.7C13.6,11.7,7.1,10.0,7.1,7.3C7.1,4.5,13.6,3.5,21.4,3.5z" fill="#0078d7" id="shape218" fill-rule="nonzero"/></g><path d="M30.2,15.5C28.8,15.5,28.2,16.2,28.2,18.3L28.2,21.4C28.2,23.5,27.8,24.5,26.8,25.9C25.8,26.6,24.1,26.9,22.0,26.9L22.0,24.2C22.7,24.2,23.4,23.8,23.7,23.5C24.1,23.1,24.4,22.4,24.4,21.8L24.4,18.6C24.4,16.6,25.1,14.5,26.5,14.2C25.1,13.5,24.4,12.1,24.4,9.3L24.4,5.5C24.4,3.8,23.7,3.1,22.4,3.1L22.4,.0C22.7,.0,23.1,.0,23.4,.0C24.8,.0,26.1,.7,27.1,1.4C27.8,2.1,28.5,3.5,28.5,5.9L28.5,9.0C28.5,10.7,29.2,11.7,30.5,11.7L30.2,15.5zM8.1,26.6C6.1,26.6,4.4,26.2,3.4,25.5C2.7,24.9,2.0,23.5,2.0,21.1L2.0,17.3C2.0,15.5,1.4,14.5,.0,14.5L.0,12.1C1.4,12.1,2.0,11.0,2.0,9.3L2.0,5.9C2.0,3.8,2.4,2.8,3.4,1.7C4.4,1.0,5.8,.7,8.1,.7L8.1,3.5C6.8,3.5,6.1,4.1,6.1,5.9L6.1,9.0C6.1,11.0,5.4,13.1,4.1,13.8C5.4,14.5,6.1,15.9,6.1,18.6L6.1,21.8C6.1,22.8,6.4,23.5,6.8,23.8C7.1,24.2,7.8,24.5,8.5,24.5L8.1,26.6z" transform="translate(13.23,19.68)" fill="#ffffff" id="shape219" fill-rule="nonzero"/><text style="fill:#191919;font-family:Arial, Microsoft Yahei;font-size:9.00pt" xml:space="preserve"><tspan y="74.0" x="-2.3">bill-payment</tspan></text></g><g transform="translate(398.52,673.16)" id="shape220"><path stroke="#191919" d="M.0,.0L60.9,.0L60.9,36.0L86.9,36.0" fill="none"/><path stroke="#191919" d="M86.9,33.0L92.9,36.0L86.9,39.0L86.9,33.0" fill="#191919" stroke-linecap="round" stroke-width="1"/></g><g transform="translate(358.06,427.54)" id="group221"><path d="M.0,20.0C.0,9.0,9.0,.0,20.0,.0C31.1,.0,40.0,9.0,40.0,20.0C40.0,31.1,31.1,40.0,20.0,40.0C9.0,40.0,.0,31.1,.0,20.0z" fill="#28a8e0" id="shape222" fill-rule="nonzero"/><g transform="translate(3.23,11.29)" id="group223"><path d="M.0,1.9L.0,3.9L5.8,3.9L5.8,5.8L8.4,2.9L5.8,.0L5.8,1.9L.0,1.9z" transform="translate(0.00,5.81)" fill="#ffffff" id="shape224" fill-rule="nonzero"/><path d="M7.1,1.6C4.0,1.6,1.5,4.1,1.5,7.1C1.5,10.2,4.0,12.7,7.1,12.7C10.2,12.7,12.7,10.2,12.7,7.1C12.7,4.1,10.2,1.6,7.1,1.6zM7.1,14.2C3.2,14.2,.0,11.1,.0,7.1C.0,3.2,3.2,.0,7.1,.0C11.0,.0,14.2,3.2,14.2,7.1C14.2,11.1,11.0,14.2,7.1,14.2z" transform="translate(9.68,1.94)" fill="#ffffff" id="shape225" fill-rule="nonzero"/><path d="M4.0,.0C4.9,1.5,4.9,1.5,4.9,1.5C.0,4.3,.0,4.3,.0,4.3C.5,4.7,.7,5.3,1.0,5.8C5.8,3.1,5.8,3.1,5.8,3.1C6.7,4.7,6.7,4.7,6.7,4.7C7.7,1.0,7.7,1.0,7.7,1.0L4.0,.0z" transform="translate(23.88,0.00)" fill="#ffffff" id="shape226" fill-rule="nonzero"/><path d="M7.7,2.9C5.1,.0,5.1,.0,5.1,.0C5.1,1.9,5.1,1.9,5.1,1.9C.0,1.9,.0,1.9,.0,1.9C.0,2.3,.0,2.6,.0,2.9C.0,3.3,.0,3.6,.0,3.9C5.1,3.9,5.1,3.9,5.1,3.9C5.1,5.8,5.1,5.8,5.1,5.8L7.7,2.9z" transform="translate(25.81,5.81)" fill="#ffffff" id="shape227" fill-rule="nonzero"/><path d="M7.7,4.8C6.7,1.2,6.7,1.2,6.7,1.2C5.8,2.7,5.8,2.7,5.8,2.7C1.0,.0,1.0,.0,1.0,.0C.7,.6,.5,1.1,.0,1.6C4.9,4.3,4.9,4.3,4.9,4.3C4.0,5.8,4.0,5.8,4.0,5.8L7.7,4.8z" transform="translate(23.88,11.61)" fill="#ffffff" id="shape228" fill-rule="nonzero"/></g><text style="fill:#191919;font-family:Arial;font-size:9.00pt" xml:space="preserve"><tspan y="56.0" x="-23.3">bill-payment-app</tspan></text></g><g transform="translate(297.52,447.54)" id="shape229"><path stroke="#191919" d="M.0,.0L54.5,.0" fill="none"/><path stroke="#191919" d="M54.5,-3.0L60.5,.0L54.5,3.0L54.5,-3.0" fill="#191919" stroke-linecap="round" stroke-width="1"/></g><g transform="translate(398.06,447.54)" id="shape230"><path stroke="#191919" d="M.0,.0L61.2,.0L61.2,-42.2L87.2,-42.2" fill="none"/><path stroke="#191919" d="M87.2,-45.2L93.2,-42.2L87.2,-39.2L87.2,-45.2" fill="#191919" stroke-linecap="round" stroke-width="1"/></g><g transform="translate(398.06,447.54)" id="shape231"><path stroke="#191919" d="M.0,.0L61.2,.0L61.2,43.4L87.2,43.4" fill="none"/><path stroke="#191919" d="M87.2,40.4L93.2,43.4L87.2,46.4L87.2,40.4" fill="#191919" stroke-linecap="round" stroke-width="1"/></g><g transform="translate(549.25,490.90)" id="shape232"><path stroke="#191919" d="M.0,.0L65.7,.0" fill="none"/><path stroke="#191919" d="M65.7,-3.0L71.7,.0L65.7,3.0L65.7,-3.0" fill="#191919" stroke-linecap="round" stroke-width="1"/></g><g transform="translate(398.52,673.16)" id="shape233"><path stroke="#191919" d="M.0,.0L60.9,.0L60.9,-77.2L86.9,-77.2" fill="none"/><path stroke="#191919" d="M86.9,-80.2L92.9,-77.2L86.9,-74.2L86.9,-80.2" fill="#191919" stroke-linecap="round" stroke-width="1"/></g><g transform="translate(520.44,566.98)" id="shape234"><path stroke="#191919" d="M.0,.0L.0,-15.5L386.6,-15.5L386.6,-26.3" fill="none"/><path stroke="#191919" d="M383.6,-26.3L386.6,-32.3L389.6,-26.3L383.6,-26.3" fill="#191919" stroke-linecap="round" stroke-width="1"/><rect y="-22.5" fill="#ffffff" x="97.0" width="116.0" height="14.0"/><text style="fill:#191919;font-family:Arial;font-size:9.00pt" xml:space="preserve"><tspan y="-11.5" x="97.0">ex.financialMovement</tspan></text></g><g transform="translate(548.79,120.04)" id="shape235"><path stroke="#191919" d="M.0,.0L356.1,.0L356.1,326.0" fill="none"/><path stroke="#191919" d="M359.1,326.0L356.1,332.0L353.1,326.0L359.1,326.0" fill="#191919" stroke-linecap="round" stroke-width="1"/><rect y="-7.0" fill="#ffffff" x="173.5" width="85.3" height="14.0"/><text style="fill:#191919;font-family:Arial;font-size:9.00pt" xml:space="preserve"><tspan y="4.0" x="173.5">rk.wallettimeline</tspan></text></g><g transform="translate(47.83,421.54)" id="group236"><path stroke="#999999" d="M2.9,.0L2.2,5.2L.0,7.6L.0,8.5C.0,8.5,.0,8.9,1.4,8.9C2.9,8.9,18.4,9.0,19.9,8.9C21.5,8.9,21.5,8.4,21.5,8.4L21.5,7.7L18.6,5.1L17.8,.1L2.9,.0z" transform="translate(18.26,43.01)" fill="#999999" stroke-width="1" id="shape237" fill-rule="nonzero"/><path stroke="#999999" d="M3.2,.0L54.7,.0C58.2,-0.1,58.0,1.9,58.0,2.6L57.9,38.2C57.9,40.2,56.2,40.5,55.4,40.5L2.0,40.5C.7,40.5,.0,39.1,.0,38.5L.0,2.3C-0.1,.0,2.3,.0,3.2,.0z" transform="translate(0.00,-0.03)" fill="#999999" stroke-width="1" id="shape238" fill-rule="nonzero"/><path stroke="#f4fafd" d="M.3,.0L51.8,.0C51.9,.0,52.1,.1,52.1,.2L52.1,28.4C52.1,28.6,51.9,28.7,51.8,28.7L.3,28.7C.1,28.7,.0,28.6,.0,28.4L.0,.2C.0,.1,.1,.0,.3,.0z" transform="translate(2.78,3.30)" fill="#ffffff" stroke-width="1" id="shape239" fill-rule="nonzero"/><path stroke="#ffffff" d="M1.9,.2C1.9,.2,1.1,-0.3,.4,.2C-0.2,.8,-0.0,1.5,.3,2.3C.7,3.0,1.0,3.4,1.3,3.2C1.6,3.0,2.1,3.0,2.3,3.2C2.5,3.3,2.8,3.2,3.0,3.0C3.2,2.8,3.6,2.1,3.6,2.1C3.6,2.1,3.0,2.0,3.0,1.1C3.1,.2,3.5,.3,3.5,.3C3.5,.3,3.2,.0,2.6,.0C2.1,.0,1.9,.3,1.9,.2z" transform="translate(27.15,35.11)" fill="#ffffff" stroke-width="1" id="shape240" fill-rule="nonzero"/><path stroke="#ffffff" d="M.0,.9C.0,.9,-0.1,.6,.2,.3C.6,-0.1,.9,.0,.9,.0C.9,.0,.9,.4,.6,.6C.4,.9,.0,.9,.0,.9z" transform="translate(29.02,33.76)" fill="#ffffff" stroke-width="1" id="shape241" fill-rule="nonzero"/><path stroke="#999999" d="M2.1,.0L.0,2.3C.0,2.3,1.1,2.8,2.6,2.8C4.1,2.8,19.0,2.7,19.8,2.7C20.6,2.7,21.2,2.6,21.2,2.6L18.4,.0C18.4,.0,16.3,.7,10.7,.6C5.2,.5,2.0,-0.1,2.1,.0z" transform="translate(18.32,48.17)" fill="#999999" stroke-width="1" id="shape242" fill-rule="nonzero"/><path stroke="#ffffff" d="M1.9,.2C1.9,.2,1.1,-0.3,.4,.2C-0.2,.8,-0.0,1.5,.3,2.3C.7,3.0,1.0,3.4,1.3,3.2C1.6,3.0,2.1,3.0,2.3,3.2C2.5,3.3,2.8,3.2,3.0,3.0C3.2,2.8,3.6,2.1,3.6,2.1C3.6,2.1,3.0,2.0,3.0,1.1C3.1,.2,3.5,.3,3.5,.3C3.5,.3,3.2,.0,2.6,.0C2.1,.0,1.9,.3,1.9,.2z" transform="translate(27.15,35.11)" fill="#ffffff" stroke-width="1" id="shape243" fill-rule="nonzero"/><path stroke="#999999" d="M.0,.0C.0,.0,.4,.4,1.4,.4C5.3,.5,18.1,.3,20.1,.3C21.3,.3,21.5,.1,21.5,.1L21.5,.9C21.5,.9,21.1,1.3,19.9,1.3C18.8,1.3,1.6,1.3,1.0,1.3C.4,1.3,.0,.9,.0,.9L.0,.0z" transform="translate(18.26,50.64)" fill="#999999" stroke-width="1" id="shape244" fill-rule="nonzero"/><path stroke="#999999" d="M2.1,.2L.0,2.5C.0,2.5,.3,2.8,1.8,2.8C3.3,2.8,18.9,2.7,19.7,2.7C20.5,2.7,21.2,2.5,21.2,2.5L18.5,-0.0C18.5,-0.0,16.2,.7,10.7,.6C5.1,.5,2.0,.1,2.1,.2z" transform="translate(18.42,48.18)" fill="#999999" stroke-width="1" id="shape245" fill-rule="nonzero"/><path stroke="#999999" d="M2.0,.2L.0,2.3C.0,2.3,.2,2.8,1.7,2.8C3.2,2.8,18.8,2.7,19.6,2.7C20.4,2.7,21.1,2.5,21.1,2.5L18.4,-0.0C18.4,-0.0,16.1,.7,10.6,.6C5.0,.5,1.9,.1,2.0,.2z" transform="translate(18.40,48.25)" fill="#999999" stroke-width="1" id="shape246" fill-rule="nonzero"/></g><g transform="translate(105.83,447.54)" id="shape247"><path stroke="#191919" d="M.0,.0L81.3,.0" fill="none"/><path stroke="#191919" d="M81.3,-3.0L87.3,.0L81.3,3.0L81.3,-3.0" fill="#191919" stroke-linecap="round" stroke-width="1"/></g></g></svg>