<svg xmlns:ev="http://www.w3.org/2001/xml-events" xmlns:xlink="http://www.w3.org/1999/xlink" xmlns="http://www.w3.org/2000/svg" width="1132" height="804" viewBox="0 0 1132 804"><defs/><g transform="translate(5.5,5.5)" id="page1"><rect y="0" fill="#ffffff" x="0" width="1123" height="794"/><g transform="translate(94.15,176.33)" id="group1"><path d="M2.6,7.8C2.6,8.5,2.1,9.1,1.3,9.1C.5,9.1,.0,8.5,.0,7.8L.0,1.3C.0,.6,.5,.0,1.3,.0C2.1,.0,2.6,.6,2.6,1.3L2.6,7.8z" transform="translate(7.72,25.13)" fill="#00188f" id="shape2" fill-rule="nonzero"/><path d="M2.6,7.8C2.6,8.5,2.1,9.1,1.3,9.1C.5,9.1,.0,8.5,.0,7.8L.0,1.3C.0,.6,.5,.0,1.3,.0C2.1,.0,2.6,.6,2.6,1.3L2.6,7.8z" transform="translate(25.66,25.13)" fill="#00188f" id="shape3" fill-rule="nonzero"/><path d="M.0,.0L.0,9.6C.0,10.8,.8,11.6,1.8,11.6L2.6,11.6L2.6,14.9C2.6,15.6,3.1,16.2,3.8,16.2C4.5,16.2,5.0,15.6,5.0,14.9L5.0,11.6L7.6,11.6L7.6,14.9C7.6,15.6,8.1,16.2,8.8,16.2C9.4,16.2,9.9,15.6,9.9,14.9L9.9,11.6L11.1,11.6C12.2,11.6,12.6,10.7,12.6,9.6L12.6,.0L.0,.0z" transform="translate(11.59,25.14)" fill="#00188f" id="shape4" fill-rule="nonzero"/><path d="M10.7,2.4L11.8,.6C11.9,.4,11.8,.2,11.7,.0C11.5,.0,11.3,.0,11.3,.2L10.2,2.1C9.3,1.6,8.1,1.3,6.9,1.3C5.8,1.3,4.6,1.6,3.7,2.1L2.6,.2C2.5,.0,2.4,.0,2.2,.0C2.1,.2,2.0,.3,2.1,.6L3.1,2.4C1.3,3.5,.0,5.3,.0,7.5C.0,7.6,.0,7.8,.0,7.8L13.9,7.8C13.9,7.8,13.9,7.6,13.9,7.5C13.9,5.3,12.7,3.4,10.7,2.4zM3.7,5.2C3.3,5.2,3.0,4.9,3.0,4.6C3.0,4.2,3.3,3.9,3.7,3.9C4.1,3.9,4.3,4.2,4.3,4.6C4.3,4.9,4.1,5.2,3.7,5.2zM10.1,5.2C9.7,5.2,9.4,4.9,9.4,4.6C9.4,4.2,9.7,3.9,10.1,3.9C10.5,3.9,10.7,4.2,10.7,4.6C10.7,4.9,10.5,5.2,10.1,5.2z" transform="translate(11.13,16.02)" fill="#00188f" id="shape5" fill-rule="nonzero"/><path d="M34.3,.0L1.7,.0C.8,.0,.0,.6,.0,1.5L.0,56.2C.0,57.1,.8,58.0,1.7,58.0L34.3,58.0C35.2,58.0,36.0,57.1,36.0,56.2L36.0,1.7C35.9,.8,35.1,.0,34.3,.0zM14.4,2.3L22.1,2.3L22.1,3.6L14.4,3.6L14.4,2.3zM18.1,56.8C16.6,56.8,15.4,55.7,15.4,54.3C15.4,52.9,16.6,51.7,18.1,51.7C19.5,51.7,20.7,52.9,20.7,54.3C20.7,55.7,19.5,56.8,18.1,56.8zM32.1,50.5L3.8,50.5L3.8,50.4L3.8,6.4L32.1,6.4L32.1,50.5z" fill="#00188f" id="shape6" fill-rule="nonzero"/></g><g transform="translate(90.01,513.25)" id="group7"><g transform="translate(7.28,22.38)" id="group8"><path d="M.0,12.9C.0,5.8,5.8,.0,12.9,.0C20.0,.0,25.7,5.8,25.7,12.9C25.7,20.0,20.0,25.7,12.9,25.7C5.8,25.7,.0,20.0,.0,12.9z" fill="#94979c" id="shape9" fill-rule="nonzero"/><path d="M8.0,4.6C8.0,4.6,7.7,3.1,8.9,1.7C10.0,.3,11.2,.1,12.0,.0C12.0,.0,12.2,1.8,10.9,3.2C9.7,4.6,8.6,4.6,8.0,4.6zM15.6,6.7C15.6,6.7,13.4,7.7,13.4,10.6C13.4,13.4,16.1,14.5,16.1,14.5C16.1,14.5,15.4,16.6,13.9,18.4C12.3,20.2,11.1,19.6,10.4,19.4C9.8,19.2,9.2,18.9,8.4,18.9C7.5,18.9,6.4,19.4,5.8,19.6C5.2,19.7,4.4,19.9,3.4,18.9C2.4,17.8,1.1,16.2,.4,13.6C-0.3,11.0,-0.6,6.4,3.7,5.0C3.7,5.0,4.9,4.6,5.9,5.0C7.0,5.3,7.8,5.7,8.2,5.7C8.5,5.7,10.5,4.7,11.6,4.7C12.6,4.7,14.4,5.0,15.6,6.7z" transform="translate(4.83,3.02)" fill="#ffffff" id="shape10" fill-rule="nonzero"/></g><g id="group11"><path d="M34.8,70.5L5.4,70.5C3.9,70.5,2.6,70.0,1.5,69.0C.5,68.0,.0,66.6,.0,65.2L.0,5.3C.0,3.9,.5,2.5,1.5,1.5C2.6,.5,3.9,.0,5.4,.0L35.0,.0C36.4,.0,37.8,.6,38.8,1.6C39.8,2.5,40.3,3.9,40.3,5.3L40.3,65.2C40.3,68.1,37.9,70.5,34.8,70.5zM5.4,3.1C4.8,3.1,4.2,3.3,3.8,3.7C3.4,4.1,3.2,4.7,3.2,5.3L3.2,65.2C3.2,65.8,3.4,66.3,3.8,66.8C4.2,67.2,4.8,67.4,5.4,67.4L35.0,67.4C36.2,67.4,37.1,66.5,37.1,65.4L37.1,5.3C37.1,4.7,36.9,4.2,36.5,3.8C36.1,3.4,35.6,3.1,35.0,3.1L5.4,3.1zM13.3,5.6L26.9,5.6L26.9,8.5L13.3,8.5L13.3,5.6zM23.6,61.7C23.6,63.6,22.0,65.1,20.1,65.1C18.1,65.1,16.6,63.6,16.6,61.7C16.6,59.8,18.1,58.2,20.1,58.2C22.0,58.2,23.6,59.8,23.6,61.7z" fill="#4c4c4c" id="shape13" fill-rule="nonzero"/></g></g><g transform="translate(421.24,433.34)" id="group14"><path d="M44.3,49.1C39.7,52.6,34.3,54.3,29.0,54.3C21.3,54.3,14.0,50.9,8.9,44.3C.5,33.3,2.6,17.5,13.6,9.0C18.2,5.5,23.6,3.8,29.0,3.8C36.6,3.8,44.0,7.2,49.0,13.8C57.5,24.8,55.3,40.7,44.3,49.1zM52.0,11.3C46.3,3.8,37.6,.0,29.0,.0C22.9,.0,16.6,2.0,11.4,6.0C-1.3,15.8,-3.8,33.9,6.0,46.7C11.7,54.2,20.3,58.0,29.0,58.0C35.1,58.0,41.4,56.0,46.6,52.0C59.3,42.4,61.8,24.1,52.0,11.3z" fill="#0078d7" id="shape15" fill-rule="nonzero"/><path d="M7.7,4.7C6.0,3.1,4.6,1.5,3.5,.0C1.1,4.9,.3,10.0,.0,14.1C.3,14.4,.3,14.7,.5,15.0C1.7,16.6,3.2,18.1,4.6,19.2C4.6,15.8,4.9,10.3,7.7,4.7z" transform="translate(6.27,31.30)" fill="#0078d7" id="shape16" fill-rule="nonzero"/><path d="M10.4,.0C8.1,1.5,5.9,3.5,3.4,6.1C2.1,7.5,.9,8.9,.0,10.3C1.1,12.0,2.3,13.7,4.0,15.4C5.2,13.7,6.7,11.8,8.6,10.1C10.9,8.0,13.0,6.2,15.2,4.8C13.7,3.2,12.0,1.5,10.4,.0z" transform="translate(12.42,16.55)" fill="#0078d7" id="shape17" fill-rule="nonzero"/><path d="M20.6,4.0C19.5,2.6,18.4,1.4,17.0,.3C13.2,-0.3,6.9,-0.2,.0,3.5C1.5,5.1,3.2,6.9,4.7,8.2C13.9,3.2,20.6,4.0,20.6,4.0z" transform="translate(26.33,11.10)" fill="#0078d7" id="shape18" fill-rule="nonzero"/><path d="M4.1,18.3C4.8,16.9,5.6,15.5,6.5,14.0C2.5,7.7,2.7,2.4,3.1,.0C2.2,1.1,1.1,2.2,.4,3.2C-0.4,6.8,-0.4,12.0,4.1,18.3z" transform="translate(5.84,12.82)" fill="#0078d7" id="shape19" fill-rule="nonzero"/><path d="M7.2,4.3C5.3,2.8,3.8,1.4,2.4,.0C1.5,1.4,.8,2.6,.0,4.0C1.2,5.2,2.8,6.6,4.4,7.8C14.7,15.9,25.0,16.7,30.8,16.7C31.1,16.7,33.0,14.3,34.0,12.7C31.4,13.4,20.3,14.7,7.2,4.3z" transform="translate(14.05,32.07)" fill="#0078d7" id="shape20" fill-rule="nonzero"/><path d="M.0,4.3C1.1,5.8,2.4,7.5,4.1,9.0C4.8,7.7,5.5,6.4,6.6,5.1C4.9,3.4,3.7,1.7,2.6,.0C1.6,1.5,.8,2.9,.0,4.3z" transform="translate(9.88,26.82)" fill="#0078d7" id="shape21" fill-rule="nonzero"/><path d="M.0,2.2C9.5,10.9,20.5,18.3,23.4,20.3C23.7,19.5,23.9,18.9,24.1,18.1C21.0,15.8,13.0,9.7,3.4,.0C2.4,.6,1.2,1.0,.0,2.2z" transform="translate(27.57,19.20)" fill="#0078d7" id="shape22" fill-rule="nonzero"/><path d="M10.6,8.0C8.3,5.5,5.9,2.8,3.4,.0C2.3,.3,1.1,.8,.0,1.4C1.7,4.3,4.3,7.3,6.9,10.1C8.3,9.3,9.4,8.6,10.6,8.0z" transform="translate(15.89,6.54)" fill="#0078d7" id="shape23" fill-rule="nonzero"/><path d="M3.7,.0C2.5,.6,1.1,1.2,.0,2.1C1.5,3.7,3.1,5.3,4.8,6.8C6.0,6.1,7.1,5.5,8.3,4.8C6.8,3.3,5.4,1.7,3.7,.0z" transform="translate(22.77,14.49)" fill="#0078d7" id="shape24" fill-rule="nonzero"/><path d="M2.1,1.1C-0.2,3.0,-0.7,6.3,1.0,8.6C2.9,11.1,6.2,11.4,8.7,9.7C11.0,7.9,11.4,4.5,9.7,2.0C7.9,-0.3,4.6,-0.7,2.1,1.1z" transform="translate(36.79,26.32)" fill="#0078d7" id="shape25" fill-rule="nonzero"/><path d="M1.9,1.1C-0.2,2.7,-0.7,6.0,1.0,8.1C2.7,10.3,5.9,10.8,8.1,9.1C10.2,7.4,10.7,4.3,9.0,2.0C7.3,-0.3,4.2,-0.6,1.9,1.1z" transform="translate(25.75,39.98)" fill="#0078d7" id="shape26" fill-rule="nonzero"/><path d="M3.0,1.6C-0.4,4.2,-1.0,9.0,1.6,12.4C4.2,15.8,9.0,16.4,12.3,13.8C15.7,11.2,16.3,6.4,13.7,3.0C11.1,-0.4,6.2,-1.0,3.0,1.6z" transform="translate(5.95,23.45)" fill="#0078d7" id="shape27" fill-rule="nonzero"/><text style="fill:#191919;font-family:Arial, Microsoft Yahei;font-size:12.00pt" xml:space="preserve"><tspan y="75.5" x="-8.6">wallet-user</tspan></text></g><g transform="translate(421.24,306.67)" id="group28"><path d="M44.3,49.1C39.7,52.6,34.3,54.3,29.0,54.3C21.3,54.3,14.0,50.9,8.9,44.3C.5,33.3,2.6,17.5,13.6,9.0C18.2,5.5,23.6,3.8,29.0,3.8C36.6,3.8,44.0,7.2,49.0,13.8C57.5,24.8,55.3,40.7,44.3,49.1zM52.0,11.3C46.3,3.8,37.6,.0,29.0,.0C22.9,.0,16.6,2.0,11.4,6.0C-1.3,15.8,-3.8,33.9,6.0,46.7C11.7,54.2,20.3,58.0,29.0,58.0C35.1,58.0,41.4,56.0,46.6,52.0C59.3,42.4,61.8,24.1,52.0,11.3z" fill="#0078d7" id="shape29" fill-rule="nonzero"/><path d="M7.7,4.7C6.0,3.1,4.6,1.5,3.5,.0C1.1,4.9,.3,10.0,.0,14.1C.3,14.4,.3,14.7,.5,15.0C1.7,16.6,3.2,18.1,4.6,19.2C4.6,15.8,4.9,10.3,7.7,4.7z" transform="translate(6.27,31.30)" fill="#0078d7" id="shape30" fill-rule="nonzero"/><path d="M10.4,.0C8.1,1.5,5.9,3.5,3.4,6.1C2.1,7.5,.9,8.9,.0,10.3C1.1,12.0,2.3,13.7,4.0,15.4C5.2,13.7,6.7,11.8,8.6,10.1C10.9,8.0,13.0,6.2,15.2,4.8C13.7,3.2,12.0,1.5,10.4,.0z" transform="translate(12.42,16.55)" fill="#0078d7" id="shape31" fill-rule="nonzero"/><path d="M20.6,4.0C19.5,2.6,18.4,1.4,17.0,.3C13.2,-0.3,6.9,-0.2,.0,3.5C1.5,5.1,3.2,6.9,4.7,8.2C13.9,3.2,20.6,4.0,20.6,4.0z" transform="translate(26.33,11.10)" fill="#0078d7" id="shape32" fill-rule="nonzero"/><path d="M4.1,18.3C4.8,16.9,5.6,15.5,6.5,14.0C2.5,7.7,2.7,2.4,3.1,.0C2.2,1.1,1.1,2.2,.4,3.2C-0.4,6.8,-0.4,12.0,4.1,18.3z" transform="translate(5.84,12.82)" fill="#0078d7" id="shape33" fill-rule="nonzero"/><path d="M7.2,4.3C5.3,2.8,3.8,1.4,2.4,.0C1.5,1.4,.8,2.6,.0,4.0C1.2,5.2,2.8,6.6,4.4,7.8C14.7,15.9,25.0,16.7,30.8,16.7C31.1,16.7,33.0,14.3,34.0,12.7C31.4,13.4,20.3,14.7,7.2,4.3z" transform="translate(14.05,32.07)" fill="#0078d7" id="shape34" fill-rule="nonzero"/><path d="M.0,4.3C1.1,5.8,2.4,7.5,4.1,9.0C4.8,7.7,5.5,6.4,6.6,5.1C4.9,3.4,3.7,1.7,2.6,.0C1.6,1.5,.8,2.9,.0,4.3z" transform="translate(9.88,26.82)" fill="#0078d7" id="shape35" fill-rule="nonzero"/><path d="M.0,2.2C9.5,10.9,20.5,18.3,23.4,20.3C23.7,19.5,23.9,18.9,24.1,18.1C21.0,15.8,13.0,9.7,3.4,.0C2.4,.6,1.2,1.0,.0,2.2z" transform="translate(27.57,19.20)" fill="#0078d7" id="shape36" fill-rule="nonzero"/><path d="M10.6,8.0C8.3,5.5,5.9,2.8,3.4,.0C2.3,.3,1.1,.8,.0,1.4C1.7,4.3,4.3,7.3,6.9,10.1C8.3,9.3,9.4,8.6,10.6,8.0z" transform="translate(15.89,6.54)" fill="#0078d7" id="shape37" fill-rule="nonzero"/><path d="M3.7,.0C2.5,.6,1.1,1.2,.0,2.1C1.5,3.7,3.1,5.3,4.8,6.8C6.0,6.1,7.1,5.5,8.3,4.8C6.8,3.3,5.4,1.7,3.7,.0z" transform="translate(22.77,14.49)" fill="#0078d7" id="shape38" fill-rule="nonzero"/><path d="M2.1,1.1C-0.2,3.0,-0.7,6.3,1.0,8.6C2.9,11.1,6.2,11.4,8.7,9.7C11.0,7.9,11.4,4.5,9.7,2.0C7.9,-0.3,4.6,-0.7,2.1,1.1z" transform="translate(36.79,26.32)" fill="#0078d7" id="shape39" fill-rule="nonzero"/><path d="M1.9,1.1C-0.2,2.7,-0.7,6.0,1.0,8.1C2.7,10.3,5.9,10.8,8.1,9.1C10.2,7.4,10.7,4.3,9.0,2.0C7.3,-0.3,4.2,-0.6,1.9,1.1z" transform="translate(25.75,39.98)" fill="#0078d7" id="shape40" fill-rule="nonzero"/><path d="M3.0,1.6C-0.4,4.2,-1.0,9.0,1.6,12.4C4.2,15.8,9.0,16.4,12.3,13.8C15.7,11.2,16.3,6.4,13.7,3.0C11.1,-0.4,6.2,-1.0,3.0,1.6z" transform="translate(5.95,23.45)" fill="#0078d7" id="shape41" fill-rule="nonzero"/><text style="fill:#191919;font-family:Arial, Microsoft Yahei;font-size:12.00pt" xml:space="preserve"><tspan y="75.5" x="-13.1">bill-payment</tspan></text></g><g transform="translate(421.24,176.33)" id="group42"><path d="M44.3,49.1C39.7,52.6,34.3,54.3,29.0,54.3C21.3,54.3,14.0,50.9,8.9,44.3C.5,33.3,2.6,17.5,13.6,9.0C18.2,5.5,23.6,3.8,29.0,3.8C36.6,3.8,44.0,7.2,49.0,13.8C57.5,24.8,55.3,40.7,44.3,49.1zM52.0,11.3C46.3,3.8,37.6,.0,29.0,.0C22.9,.0,16.6,2.0,11.4,6.0C-1.3,15.8,-3.8,33.9,6.0,46.7C11.7,54.2,20.3,58.0,29.0,58.0C35.1,58.0,41.4,56.0,46.6,52.0C59.3,42.4,61.8,24.1,52.0,11.3z" fill="#0078d7" id="shape43" fill-rule="nonzero"/><path d="M7.7,4.7C6.0,3.1,4.6,1.5,3.5,.0C1.1,4.9,.3,10.0,.0,14.1C.3,14.4,.3,14.7,.5,15.0C1.7,16.6,3.2,18.1,4.6,19.2C4.6,15.8,4.9,10.3,7.7,4.7z" transform="translate(6.27,31.30)" fill="#0078d7" id="shape44" fill-rule="nonzero"/><path d="M10.4,.0C8.1,1.5,5.9,3.5,3.4,6.1C2.1,7.5,.9,8.9,.0,10.3C1.1,12.0,2.3,13.7,4.0,15.4C5.2,13.7,6.7,11.8,8.6,10.1C10.9,8.0,13.0,6.2,15.2,4.8C13.7,3.2,12.0,1.5,10.4,.0z" transform="translate(12.42,16.55)" fill="#0078d7" id="shape45" fill-rule="nonzero"/><path d="M20.6,4.0C19.5,2.6,18.4,1.4,17.0,.3C13.2,-0.3,6.9,-0.2,.0,3.5C1.5,5.1,3.2,6.9,4.7,8.2C13.9,3.2,20.6,4.0,20.6,4.0z" transform="translate(26.33,11.10)" fill="#0078d7" id="shape46" fill-rule="nonzero"/><path d="M4.1,18.3C4.8,16.9,5.6,15.5,6.5,14.0C2.5,7.7,2.7,2.4,3.1,.0C2.2,1.1,1.1,2.2,.4,3.2C-0.4,6.8,-0.4,12.0,4.1,18.3z" transform="translate(5.84,12.82)" fill="#0078d7" id="shape47" fill-rule="nonzero"/><path d="M7.2,4.3C5.3,2.8,3.8,1.4,2.4,.0C1.5,1.4,.8,2.6,.0,4.0C1.2,5.2,2.8,6.6,4.4,7.8C14.7,15.9,25.0,16.7,30.8,16.7C31.1,16.7,33.0,14.3,34.0,12.7C31.4,13.4,20.3,14.7,7.2,4.3z" transform="translate(14.05,32.07)" fill="#0078d7" id="shape48" fill-rule="nonzero"/><path d="M.0,4.3C1.1,5.8,2.4,7.5,4.1,9.0C4.8,7.7,5.5,6.4,6.6,5.1C4.9,3.4,3.7,1.7,2.6,.0C1.6,1.5,.8,2.9,.0,4.3z" transform="translate(9.88,26.82)" fill="#0078d7" id="shape49" fill-rule="nonzero"/><path d="M.0,2.2C9.5,10.9,20.5,18.3,23.4,20.3C23.7,19.5,23.9,18.9,24.1,18.1C21.0,15.8,13.0,9.7,3.4,.0C2.4,.6,1.2,1.0,.0,2.2z" transform="translate(27.57,19.20)" fill="#0078d7" id="shape50" fill-rule="nonzero"/><path d="M10.6,8.0C8.3,5.5,5.9,2.8,3.4,.0C2.3,.3,1.1,.8,.0,1.4C1.7,4.3,4.3,7.3,6.9,10.1C8.3,9.3,9.4,8.6,10.6,8.0z" transform="translate(15.89,6.54)" fill="#0078d7" id="shape51" fill-rule="nonzero"/><path d="M3.7,.0C2.5,.6,1.1,1.2,.0,2.1C1.5,3.7,3.1,5.3,4.8,6.8C6.0,6.1,7.1,5.5,8.3,4.8C6.8,3.3,5.4,1.7,3.7,.0z" transform="translate(22.77,14.49)" fill="#0078d7" id="shape52" fill-rule="nonzero"/><path d="M2.1,1.1C-0.2,3.0,-0.7,6.3,1.0,8.6C2.9,11.1,6.2,11.4,8.7,9.7C11.0,7.9,11.4,4.5,9.7,2.0C7.9,-0.3,4.6,-0.7,2.1,1.1z" transform="translate(36.79,26.32)" fill="#0078d7" id="shape53" fill-rule="nonzero"/><path d="M1.9,1.1C-0.2,2.7,-0.7,6.0,1.0,8.1C2.7,10.3,5.9,10.8,8.1,9.1C10.2,7.4,10.7,4.3,9.0,2.0C7.3,-0.3,4.2,-0.6,1.9,1.1z" transform="translate(25.75,39.98)" fill="#0078d7" id="shape54" fill-rule="nonzero"/><path d="M3.0,1.6C-0.4,4.2,-1.0,9.0,1.6,12.4C4.2,15.8,9.0,16.4,12.3,13.8C15.7,11.2,16.3,6.4,13.7,3.0C11.1,-0.4,6.2,-1.0,3.0,1.6z" transform="translate(5.95,23.45)" fill="#0078d7" id="shape55" fill-rule="nonzero"/><text style="fill:#191919;font-family:Arial, Microsoft Yahei;font-size:12.00pt" xml:space="preserve"><tspan y="75.5" x="-20.6">wallet-timeline</tspan></text></g><path d="M78.0,34.3C78.0,37.5,75.2,40.2,72.1,40.2C68.9,40.2,66.1,37.5,66.1,34.3C66.1,31.7,67.6,29.6,69.7,28.7L69.7,23.0L39.0,5.1L8.3,23.0L8.3,35.8L3.8,35.8L3.8,20.4L39.0,.0L74.4,20.4L74.4,28.7C76.5,29.6,78.0,31.7,78.0,34.3zM69.7,58.7L39.0,76.6L8.3,58.7L8.3,53.0C10.4,52.1,11.9,50.0,11.9,47.5C11.9,44.3,9.1,41.5,5.9,41.5C2.8,41.5,.0,44.3,.0,47.5C.0,50.0,1.5,52.1,3.6,53.0L3.6,61.3L38.6,81.5L39.0,81.7L74.2,61.3L74.2,46.0L69.7,46.0L69.7,58.7zM24.2,21.7C21.8,21.3,19.9,23.0,19.9,25.3L19.9,48.5C19.9,54.9,25.2,60.2,31.6,60.2L46.2,60.2C53.2,60.2,58.9,54.1,58.1,46.8C57.2,40.6,51.7,36.4,45.8,36.4L40.5,36.4C39.8,36.4,39.4,36.0,39.4,35.3L39.4,25.7C39.4,24.0,38.2,22.3,36.5,21.9C34.1,21.5,32.2,23.2,32.2,25.5L32.2,35.3C32.2,36.0,31.8,36.4,31.2,36.4L28.2,36.4C27.6,36.4,27.1,36.0,27.1,35.3L27.1,25.7C27.1,23.6,25.9,21.9,24.2,21.7zM26.5,48.1C26.5,49.8,27.8,51.1,29.5,51.1C31.2,51.1,32.4,49.8,32.4,48.1C32.4,46.4,31.2,45.1,29.5,45.1C27.8,45.1,26.5,46.4,26.5,48.1zM45.6,48.1C45.6,49.8,46.8,51.1,48.5,51.1C50.2,51.1,51.5,49.8,51.5,48.1C51.5,46.4,50.2,45.1,48.5,45.1C46.8,45.1,45.6,46.4,45.6,48.1zM36.2,48.1C36.2,49.8,37.5,51.1,39.2,51.1C40.9,51.1,42.2,49.8,42.2,48.1C42.2,46.4,40.9,45.1,39.2,45.1C37.5,45.1,36.2,46.4,36.2,48.1z" transform="translate(621.21,291.81)" fill="#00c1de" id="shape56" fill-rule="nonzero"/><g transform="translate(548.03,149.87)" id="group57"><path d="M57.7,58.0L.0,58.0L.0,.0L58.0,.0L58.0,58.0L57.7,58.0z" fill="#f6f6f6" fill-opacity="0.00" id="shape58" fill-rule="nonzero"/><g transform="translate(7.12,3.45)" id="group59"><path d="M.0,.0L3.7,.0L3.7,11.0L.0,11.0L.0,.0z" transform="translate(21.37,25.55)" fill="#0078d7" id="shape60" fill-rule="nonzero"/><path d="M20.7,.0C9.5,.0,.0,4.5,.0,8.3L.0,43.2C.0,47.6,11.9,51.4,22.7,51.4C33.6,51.4,42.7,47.6,42.7,43.5L42.7,8.3C42.7,4.5,31.5,.0,20.7,.0zM21.4,3.5C29.2,3.5,35.6,5.2,35.6,7.6C35.6,10.0,29.2,11.7,21.4,11.7C13.6,11.7,7.1,10.0,7.1,7.3C7.1,4.5,13.6,3.5,21.4,3.5z" fill="#0078d7" id="shape61" fill-rule="nonzero"/></g><path d="M30.2,15.5C28.8,15.5,28.2,16.2,28.2,18.3L28.2,21.4C28.2,23.5,27.8,24.5,26.8,25.9C25.8,26.6,24.1,26.9,22.0,26.9L22.0,24.2C22.7,24.2,23.4,23.8,23.7,23.5C24.1,23.1,24.4,22.4,24.4,21.8L24.4,18.6C24.4,16.6,25.1,14.5,26.5,14.2C25.1,13.5,24.4,12.1,24.4,9.3L24.4,5.5C24.4,3.8,23.7,3.1,22.4,3.1L22.4,.0C22.7,.0,23.1,.0,23.4,.0C24.8,.0,26.1,.7,27.1,1.4C27.8,2.1,28.5,3.5,28.5,5.9L28.5,9.0C28.5,10.7,29.2,11.7,30.5,11.7L30.2,15.5zM8.1,26.6C6.1,26.6,4.4,26.2,3.4,25.5C2.7,24.9,2.0,23.5,2.0,21.1L2.0,17.3C2.0,15.5,1.4,14.5,.0,14.5L.0,12.1C1.4,12.1,2.0,11.0,2.0,9.3L2.0,5.9C2.0,3.8,2.4,2.8,3.4,1.7C4.4,1.0,5.8,.7,8.1,.7L8.1,3.5C6.8,3.5,6.1,4.1,6.1,5.9L6.1,9.0C6.1,11.0,5.4,13.1,4.1,13.8C5.4,14.5,6.1,15.9,6.1,18.6L6.1,21.8C6.1,22.8,6.4,23.5,6.8,23.8C7.1,24.2,7.8,24.5,8.5,24.5L8.1,26.6z" transform="translate(13.23,19.68)" fill="#ffffff" id="shape62" fill-rule="nonzero"/><text style="fill:#191919;font-family:Arial, Microsoft Yahei;font-size:12.00pt" xml:space="preserve"><tspan y="75.5" x="-20.6">wallet-timeline</tspan></text></g><g transform="translate(594.62,433.34)" id="group63"><path d="M57.7,58.0L.0,58.0L.0,.0L58.0,.0L58.0,58.0L57.7,58.0z" fill="#f6f6f6" fill-opacity="0.00" id="shape64" fill-rule="nonzero"/><g transform="translate(7.12,3.45)" id="group65"><path d="M.0,.0L3.7,.0L3.7,11.0L.0,11.0L.0,.0z" transform="translate(21.37,25.55)" fill="#0078d7" id="shape66" fill-rule="nonzero"/><path d="M20.7,.0C9.5,.0,.0,4.5,.0,8.3L.0,43.2C.0,47.6,11.9,51.4,22.7,51.4C33.6,51.4,42.7,47.6,42.7,43.5L42.7,8.3C42.7,4.5,31.5,.0,20.7,.0zM21.4,3.5C29.2,3.5,35.6,5.2,35.6,7.6C35.6,10.0,29.2,11.7,21.4,11.7C13.6,11.7,7.1,10.0,7.1,7.3C7.1,4.5,13.6,3.5,21.4,3.5z" fill="#0078d7" id="shape67" fill-rule="nonzero"/></g><path d="M30.2,15.5C28.8,15.5,28.2,16.2,28.2,18.3L28.2,21.4C28.2,23.5,27.8,24.5,26.8,25.9C25.8,26.6,24.1,26.9,22.0,26.9L22.0,24.2C22.7,24.2,23.4,23.8,23.7,23.5C24.1,23.1,24.4,22.4,24.4,21.8L24.4,18.6C24.4,16.6,25.1,14.5,26.5,14.2C25.1,13.5,24.4,12.1,24.4,9.3L24.4,5.5C24.4,3.8,23.7,3.1,22.4,3.1L22.4,.0C22.7,.0,23.1,.0,23.4,.0C24.8,.0,26.1,.7,27.1,1.4C27.8,2.1,28.5,3.5,28.5,5.9L28.5,9.0C28.5,10.7,29.2,11.7,30.5,11.7L30.2,15.5zM8.1,26.6C6.1,26.6,4.4,26.2,3.4,25.5C2.7,24.9,2.0,23.5,2.0,21.1L2.0,17.3C2.0,15.5,1.4,14.5,.0,14.5L.0,12.1C1.4,12.1,2.0,11.0,2.0,9.3L2.0,5.9C2.0,3.8,2.4,2.8,3.4,1.7C4.4,1.0,5.8,.7,8.1,.7L8.1,3.5C6.8,3.5,6.1,4.1,6.1,5.9L6.1,9.0C6.1,11.0,5.4,13.1,4.1,13.8C5.4,14.5,6.1,15.9,6.1,18.6L6.1,21.8C6.1,22.8,6.4,23.5,6.8,23.8C7.1,24.2,7.8,24.5,8.5,24.5L8.1,26.6z" transform="translate(13.23,19.68)" fill="#ffffff" id="shape68" fill-rule="nonzero"/><text style="fill:#191919;font-family:Arial, Microsoft Yahei;font-size:12.00pt" xml:space="preserve"><tspan y="75.5" x="-8.6">wallet-user</tspan></text></g><g transform="translate(479.24,462.34)" id="shape69"><path stroke="#191919" d="M.0,.0L109.4,.0" fill="none"/><path stroke="#191919" d="M109.4,-3.0L115.4,.0L109.4,3.0L109.4,-3.0" fill="#191919" stroke-linecap="round" stroke-width="1"/></g><g transform="translate(421.24,84.28)" id="group70"><g transform="translate(0.00,19.20)" id="group71"><path d="M.0,5.6C.0,6.2,.4,6.8,1.6,7.3L25.2,16.8C27.3,17.6,30.7,17.6,32.8,16.8L56.4,7.3C57.6,6.8,58.1,6.2,58.0,5.6L58.0,.2C58.1,.8,57.5,1.4,56.4,1.8L32.8,11.3C30.7,12.2,27.3,12.2,25.2,11.3L1.6,1.8C.4,1.3,-0.2,.6,.0,.0L.0,5.6z" transform="translate(0.00,11.39)" fill="#ba141a" id="shape72" fill-rule="nonzero"/><path d="M56.4,10.1C58.5,11.0,58.5,12.4,56.4,13.2L32.8,22.7C30.7,23.6,27.3,23.6,25.2,22.7L1.6,13.2C-0.5,12.4,-0.5,11.0,1.6,10.1L25.2,.6C27.3,-0.2,30.7,-0.2,32.8,.6L56.4,10.1z" fill="#ba141a" id="shape73" fill-rule="nonzero"/></g><g transform="translate(0.00,9.60)" id="group74"><path d="M.0,5.6C.0,6.2,.4,6.8,1.6,7.3L25.2,16.8C27.3,17.6,30.7,17.6,32.8,16.8L56.4,7.3C57.6,6.8,58.1,6.2,58.0,5.6L58.0,.2C58.1,.8,57.5,1.4,56.4,1.8L32.8,11.3C30.7,12.2,27.3,12.2,25.2,11.3L1.6,1.8C.4,1.3,-0.2,.6,.0,.0L.0,5.6z" transform="translate(0.00,11.39)" fill="#ba141a" id="shape75" fill-rule="nonzero"/><path d="M56.4,10.1C58.5,11.0,58.5,12.4,56.4,13.2L32.8,22.7C30.7,23.6,27.3,23.6,25.2,22.7L1.6,13.2C-0.5,12.4,-0.5,11.0,1.6,10.1L25.2,.6C27.3,-0.2,30.7,-0.2,32.8,.6L56.4,10.1z" fill="#ba141a" id="shape76" fill-rule="nonzero"/></g><g id="group77"><path d="M.0,5.6C.0,6.2,.4,6.8,1.6,7.3L25.2,16.8C27.3,17.6,30.7,17.6,32.8,16.8L56.4,7.3C57.6,6.8,58.1,6.2,58.0,5.6L58.0,.2C58.1,.8,57.5,1.4,56.4,1.8L32.8,11.3C30.7,12.2,27.3,12.2,25.2,11.3L1.6,1.8C.4,1.3,-0.2,.6,.0,.0L.0,5.6z" transform="translate(0.00,11.39)" fill="#ba141a" id="shape78" fill-rule="nonzero"/><path d="M.0,5.6C.0,6.2,.4,6.8,1.6,7.3L25.2,16.8C27.3,17.6,30.7,17.6,32.8,16.8L56.4,7.3C57.6,6.8,58.1,6.2,58.0,5.6L58.0,.2C58.1,.8,57.5,1.4,56.4,1.8L32.8,11.3C30.7,12.2,27.3,12.2,25.2,11.3L1.6,1.8C.4,1.3,-0.2,.6,.0,.0L.0,5.6z" transform="translate(0.00,30.58)" fill="#1e1e1e" fill-opacity="0.25" id="shape79" fill-rule="nonzero"/><path d="M.0,5.6C.0,6.2,.4,6.8,1.6,7.3L25.2,16.8C27.3,17.6,30.7,17.6,32.8,16.8L56.4,7.3C57.6,6.8,58.1,6.2,58.0,5.6L58.0,.2C58.1,.8,57.5,1.4,56.4,1.8L32.8,11.3C30.7,12.2,27.3,12.2,25.2,11.3L1.6,1.8C.4,1.3,-0.2,.6,.0,.0L.0,5.6z" transform="translate(0.00,20.98)" fill="#1e1e1e" fill-opacity="0.25" id="shape80" fill-rule="nonzero"/><path d="M.0,5.6C.0,6.2,.4,6.8,1.6,7.3L25.2,16.8C27.3,17.6,30.7,17.6,32.8,16.8L56.4,7.3C57.6,6.8,58.1,6.2,58.0,5.6L58.0,.2C58.1,.8,57.5,1.4,56.4,1.8L32.8,11.3C30.7,12.2,27.3,12.2,25.2,11.3L1.6,1.8C.4,1.3,-0.2,.6,.0,.0L.0,5.6z" transform="translate(0.00,11.39)" fill="#1e1e1e" fill-opacity="0.25" id="shape81" fill-rule="nonzero"/><path d="M56.4,10.1C58.5,11.0,58.5,12.4,56.4,13.2L32.8,22.7C30.7,23.6,27.3,23.6,25.2,22.7L1.6,13.2C-0.5,12.4,-0.5,11.0,1.6,10.1L25.2,.6C27.3,-0.2,30.7,-0.2,32.8,.6L56.4,10.1z" fill="#ba141a" id="shape82" fill-rule="nonzero"/></g><path d="M11.7,5.1C9.1,6.3,4.7,6.3,2.0,5.1C-0.7,4.0,-0.7,2.1,2.0,.9C4.7,-0.3,9.1,-0.3,11.7,.9C14.4,2.1,14.4,4.0,11.7,5.1z" transform="translate(10.03,8.32)" fill="#ffffff" id="shape83" fill-rule="nonzero"/><path d="M.0,1.6L13.8,.0L10.1,6.0L.0,1.6z" transform="translate(19.95,14.87)" fill="#ffffff" id="shape84" fill-rule="nonzero"/><path d="M8.2,7.2L.0,3.6L8.2,.0L16.5,3.6L8.2,7.2z" transform="translate(33.30,7.76)" fill="#1e1e1e" fill-opacity="0.25" id="shape85" fill-rule="nonzero"/><path d="M8.2,7.2L.0,3.6L8.2,.0L8.2,7.2z" transform="translate(33.30,7.76)" fill="#1e1e1e" fill-opacity="0.25" id="shape86" fill-rule="nonzero"/><path d="M5.4,4.0L.0,3.6L4.8,2.4L4.2,.0L8.2,1.6L13.2,.6L10.9,2.8L14.6,4.6L9.2,4.3L6.5,6.4L5.4,4.0z" transform="translate(20.99,2.91)" fill="#ffffff" id="shape87" fill-rule="nonzero"/><text style="fill:#191919;font-family:Arial, Microsoft Yahei;font-size:12.00pt" xml:space="preserve"><tspan y="65.5" x="9.6">Redis</tspan></text></g><g transform="translate(112.14,513.25)" id="shape88"><path stroke="#191919" d="M.0,.0L.0,-177.6L70.8,-177.6" fill="none"/><path stroke="#191919" d="M70.8,-180.6L76.8,-177.6L70.8,-174.6L70.8,-180.6" fill="#191919" stroke-linecap="round" stroke-width="1"/></g><g transform="translate(112.15,234.33)" id="shape89"><path stroke="#191919" d="M.0,.0L.0,101.3L70.8,101.3" fill="none"/><path stroke="#191919" d="M70.8,98.3L76.8,101.3L70.8,104.3L70.8,98.3" fill="#191919" stroke-linecap="round" stroke-width="1"/></g><g transform="translate(188.98,283.46)" id="group90"><path stroke="#a5a5a5" d="M35.7,104.4L68.7,104.4C88.4,104.4,104.4,88.4,104.4,68.7L104.4,35.7C104.4,16.0,88.4,.0,68.7,.0L35.7,.0C16.0,.0,.0,16.0,.0,35.7L.0,68.7C.0,88.4,16.0,104.4,35.7,104.4z" fill="#ffffff" stroke-linecap="round" id="shape91" fill-rule="nonzero"/><path d="M7.7,.0C30.6,.0,30.6,.0,30.6,.0C34.8,.0,38.3,3.5,38.3,7.7C38.3,30.6,38.3,30.6,38.3,30.6C38.3,34.9,34.8,38.3,30.6,38.3C7.7,38.3,7.7,38.3,7.7,38.3C3.5,38.3,.0,34.9,.0,30.6C.0,7.7,.0,7.7,.0,7.7C.0,3.5,3.5,.0,7.7,.0z" transform="translate(33.06,33.04)" fill="#6abd46" id="shape92" fill-rule="nonzero"/><g transform="translate(34.99,43.14)" id="group93"><path d="M.0,1.9L.0,3.9L5.9,3.9L5.9,5.7L8.7,2.9L5.9,.0L5.9,1.9L.0,1.9z" transform="translate(-0.00,6.44)" fill="#ffffff" id="shape94" fill-rule="nonzero"/><path d="M7.2,1.6C4.1,1.6,1.6,4.2,1.6,7.4C1.6,10.6,4.1,13.2,7.2,13.2C10.3,13.2,12.8,10.6,12.8,7.4C12.8,4.2,10.3,1.6,7.2,1.6zM7.2,14.8C3.2,14.8,.0,11.5,.0,7.4C.0,3.3,3.2,.0,7.2,.0C11.2,.0,14.4,3.3,14.4,7.4C14.4,11.5,11.2,14.8,7.2,14.8z" transform="translate(10.14,1.90)" fill="#ffffff" id="shape95" fill-rule="nonzero"/><path d="M4.1,.0C5.0,1.7,5.0,1.7,5.0,1.7C.0,4.7,.0,4.7,.0,4.7C.4,5.2,.8,5.8,1.0,6.4C6.0,3.5,6.0,3.5,6.0,3.5C6.9,5.2,6.9,5.2,6.9,5.2C8.0,1.1,8.0,1.1,8.0,1.1L4.1,.0z" transform="translate(24.75,0.00)" fill="#ffffff" id="shape96" fill-rule="nonzero"/><path d="M8.2,2.9C5.4,.0,5.4,.0,5.4,.0C5.4,1.9,5.4,1.9,5.4,1.9C.0,1.9,.0,1.9,.0,1.9C.0,2.2,.0,2.5,.0,2.9C.0,3.2,.0,3.5,.0,3.8C5.4,3.8,5.4,3.8,5.4,3.8C5.4,5.7,5.4,5.7,5.4,5.7L8.2,2.9z" transform="translate(26.17,6.44)" fill="#ffffff" id="shape97" fill-rule="nonzero"/><path d="M8.0,4.9C6.9,1.2,6.9,1.2,6.9,1.2C6.0,2.7,6.0,2.7,6.0,2.7C1.0,.0,1.0,.0,1.0,.0C.8,.6,.4,1.1,.0,1.6C5.0,4.4,5.0,4.4,5.0,4.4C4.1,6.0,4.1,6.0,4.1,6.0L8.0,4.9z" transform="translate(24.75,12.16)" fill="#ffffff" id="shape98" fill-rule="nonzero"/></g><g transform="translate(14.83,14.99)" id="group99"><path d="M.0,1.8C.0,.8,.8,.0,1.8,.0C2.8,.0,3.6,.8,3.6,1.8C3.6,2.8,2.8,3.6,1.8,3.6C.8,3.6,.0,2.8,.0,1.8z" transform="translate(6.25,5.35)" fill="#d7e3bf" id="shape100" fill-rule="nonzero"/><path d="M.0,1.8C.0,.8,.8,.0,1.8,.0C2.8,.0,3.6,.8,3.6,1.8C3.6,2.8,2.8,3.6,1.8,3.6C.8,3.6,.0,2.8,.0,1.8z" transform="translate(35.55,0.00)" fill="#d7e3bf" id="shape101" fill-rule="nonzero"/><path d="M.0,1.8C.0,.8,.8,.0,1.8,.0C2.8,.0,3.6,.8,3.6,1.8C3.6,2.8,2.8,3.6,1.8,3.6C.8,3.6,.0,2.8,.0,1.8z" transform="translate(0.00,35.39)" fill="#d7e3bf" id="shape102" fill-rule="nonzero"/><path d="M.0,1.8C.0,.8,.8,.0,1.8,.0C2.8,.0,3.6,.8,3.6,1.8C3.6,2.8,2.8,3.6,1.8,3.6C.8,3.6,.0,2.8,.0,1.8z" transform="translate(6.40,65.13)" fill="#d7e3bf" id="shape103" fill-rule="nonzero"/><path d="M.0,1.8C.0,.8,.8,.0,1.8,.0C2.8,.0,3.6,.8,3.6,1.8C3.6,2.8,2.8,3.6,1.8,3.6C.8,3.6,.0,2.8,.0,1.8z" transform="translate(35.55,71.08)" fill="#d7e3bf" id="shape104" fill-rule="nonzero"/><path d="M.0,1.8C.0,.8,.8,.0,1.8,.0C2.8,.0,3.6,.8,3.6,1.8C3.6,2.8,2.8,3.6,1.8,3.6C.8,3.6,.0,2.8,.0,1.8z" transform="translate(65.59,65.13)" fill="#d7e3bf" id="shape105" fill-rule="nonzero"/><path d="M.0,1.8C.0,.8,.8,.0,1.8,.0C2.8,.0,3.6,.8,3.6,1.8C3.6,2.8,2.8,3.6,1.8,3.6C.8,3.6,.0,2.8,.0,1.8z" transform="translate(71.09,35.39)" fill="#d7e3bf" id="shape106" fill-rule="nonzero"/><path d="M.0,1.8C.0,.8,.8,.0,1.8,.0C2.8,.0,3.6,.8,3.6,1.8C3.6,2.8,2.8,3.6,1.8,3.6C.8,3.6,.0,2.8,.0,1.8z" transform="translate(65.59,5.35)" fill="#d7e3bf" id="shape107" fill-rule="nonzero"/></g><text style="fill:#191919;font-family:Arial;font-size:12.00pt" xml:space="preserve"><tspan y="131.4" x="30.5"> Nginx</tspan></text></g><g transform="translate(479.24,205.33)" id="shape108"><path stroke="#191919" d="M.0,.0L36.8,.0L36.8,-26.5L62.8,-26.5" fill="none"/><path stroke="#191919" d="M62.8,-29.5L68.8,-26.5L62.8,-23.5L62.8,-29.5" fill="#191919" stroke-linecap="round" stroke-width="1"/></g><g transform="translate(450.24,176.33)" id="shape109"><path stroke="#191919" d="M.0,.0L.0,-38.0" fill="none"/><path stroke="#191919" d="M-3.0,-38.0L.0,-44.0L3.0,-38.0L-3.0,-38.0" fill="#191919" stroke-linecap="round" stroke-width="1"/></g><g transform="translate(450.24,433.34)" id="shape110"><path stroke="#191919" d="M.0,.0L.0,-27.8L210.0,-27.8L210.0,-53.8" fill="none"/><path stroke="#191919" d="M207.0,-53.8L210.0,-59.8L213.0,-53.8L207.0,-53.8" fill="#191919" stroke-linecap="round" stroke-width="1"/></g><g transform="translate(450.24,234.33)" id="shape111"><path stroke="#191919" d="M.0,.0L.0,25.5L214.8,25.5L214.8,54.3" fill="none"/><path stroke="#191919" d="M217.8,54.3L214.8,60.3L211.8,54.3L217.8,54.3" fill="#191919" stroke-linecap="round" stroke-width="1"/></g><g transform="translate(479.24,335.67)" id="shape112"><path stroke="#191919" d="M.0,.0L110.0,.0L110.0,.8L136.7,.8" fill="none"/><path stroke="#191919" d="M136.7,-2.2L142.7,.8L136.7,3.8L136.7,-2.2" fill="#191919" stroke-linecap="round" stroke-width="1"/></g><g transform="translate(293.38,335.67)" id="shape113"><path stroke="#191919" d="M.0,.0L121.9,.0" fill="none"/><path stroke="#191919" d="M121.9,-3.0L127.9,.0L121.9,3.0L121.9,-3.0" fill="#191919" stroke-linecap="round" stroke-width="1"/></g><g transform="translate(241.18,283.46)" id="shape114"><path stroke="#191919" d="M.0,.0L.0,-78.1L174.1,-78.1" fill="none"/><path stroke="#191919" d="M174.1,-81.1L180.1,-78.1L174.1,-75.1L174.1,-81.1" fill="#191919" stroke-linecap="round" stroke-width="1"/></g><g transform="translate(241.18,387.87)" id="shape115"><path stroke="#191919" d="M.0,.0L.0,74.5L174.1,74.5" fill="none"/><path stroke="#191919" d="M174.1,71.5L180.1,74.5L174.1,77.5L174.1,71.5" fill="#191919" stroke-linecap="round" stroke-width="1"/></g></g></svg>